<?xml version="1.0" encoding="utf-8"?>
<!-- Generator: Adobe Illustrator 27.0.1, SVG Export Plug-In . SVG Version: 6.00 Build 0)  -->
<svg version="1.1" id="Lag_1" xmlns="http://www.w3.org/2000/svg" xmlns:xlink="http://www.w3.org/1999/xlink" x="0px" y="0px"
	 viewBox="0 0 1168 1073.5" style="enable-background:new 0 0 1168 1073.5;" xml:space="preserve">
<style type="text/css">
	.st0{fill:#FEF7EE;}
	.st1{fill:#F9EDE1;}
	.st2{fill:#FFE1AA;}
	.st3{fill:#F7A210;}
	.st4{fill:#FFA603;}
	.st5{fill:#DBD8D9;}
	.st6{fill:#FFFFFF;}
	.st7{fill:none;stroke:#FFFFFF;stroke-width:47;stroke-linecap:round;stroke-miterlimit:10;}
	.st8{fill:#FFBB3F;}
	.st9{fill:#FFA500;}
	.st10{fill:#271F21;}
	.st11{fill:#FEA502;}
</style>
<path class="st0" d="M219,503.4c-0.9-0.5-1.6-1.3-2.2-2.1c0,0,0-0.1,0-0.1c-0.7-0.8-1.4-1.6-2.2-2.4c0,0,0-0.1,0-0.1
	c-3.3-3.5-6-7.5-8.8-11.4c0-0.9-0.6-1.6-1-2.4c-1.6-3.1-3.2-6.2-4.1-9.6c-1.3-4.6-1.7-9.5-1.6-14.3c0.3-13.8,6.2-24.3,18.8-30.7
	c5.3-2.7,11.2-3.5,17.1-4.3c5.9-0.8,11.7-0.5,17.6,0.5c5.1,1.5,8.8,4.9,12,8.8c-2.3-0.4-4.1-1.8-6.3-2.6c-3.8-1.5-7.8-2-11.8-2.1
	c-8.6-0.2-17,0.6-24.6,5.1c-9.6,5.6-15.5,13.9-16.7,25.1c-0.3,2.6-1,5.2-0.6,7.8c0.9,5.7,2.3,11.3,4.9,16.5c1.2,2.6,2.6,5,4.1,7.4
	c-0.9,1.6,0.3,1.7,1.3,1.9c0.1,0.1,0.2,0.3,0.3,0.5c0,1,0,1.9,1.3,2c2.4,2.6,4.5,5.4,6.2,8.5c-0.2,0.1-0.5,0.3-0.7,0.4
	c-0.7-0.2-1.1-0.7-1.5-1.3C220.2,504,219.9,503.4,219,503.4z"/>
<path class="st1" d="M263,552.8c-0.2,0.2-0.4,0.5-0.6,0.7c-3.2,2.4-3.8,2.2-5.1-1.6c-2-5.8-5.2-11-8.9-15.9
	c-0.6-0.9-1.4-1.7-1.7-2.7c1.1-0.4,2.2,0.4,3.3,0.2c0.4,0.2,0.7,0.6,0.8,1c0,3,0,3,2.7,3.3C257.4,542.5,260.8,547.3,263,552.8z"/>
<path class="st2" d="M250,533.6c-1.1,0.2-2.2-0.6-3.3-0.2c-7.7-9.7-16.7-18.2-24.9-27.4c0.2-0.1,0.5-0.3,0.7-0.4
	c0,0-0.1,0.1-0.1,0.1c0.5,0.7,0.7,0.1,0.9-0.2c0.3,0.2,0.7,0.2,0.8,0.5c3.5,5,8.4,8.8,12.4,13.5c1.8,2.2,3.9,4.1,6,6
	C245.2,528,247.8,530.6,250,533.6z"/>
<path class="st2" d="M253.6,538c-2.7-0.3-2.7-0.3-2.7-3.3C251.7,535.7,253,536.6,253.6,538z"/>
<path class="st2" d="M214.8,494.5c-1-0.2-2.2-0.4-1.3-1.9C214.2,493,214.7,493.6,214.8,494.5z"/>
<path class="st2" d="M216.3,497c-1.3-0.2-1.3-1.1-1.3-2C215.8,495.5,216.2,496.2,216.3,497z"/>
<path class="st0" d="M223.3,505.4c-0.2,0.3-0.4,0.9-0.9,0.2C222.7,505.2,223,505.2,223.3,505.4z"/>
<path class="st0" d="M159.9,624.5c0.5,0.6,0.9,1.2,1.4,1.8c-0.5,0-1,0.1-1.5,0.1c-2.8-1.9-5.1-4.3-6.9-7.2c-0.6-1-1.3-2-2-2.9
	c0-2,1.7-2.3,3.1-2.8c4.2-1.5,8.5-2.8,12.7-4.3c16-5.6,31.8-11.5,47.5-17.8c3.1-1.3,6.4-2.4,9.3-3.9c2.2-1.2,4.3-2,6.8-2.1
	c-0.5,2.6-1.1,5.3-2.3,7.7c-6.9,2.4-13.6,5.3-20.4,7.8c-5.7,2.1-11.3,4.7-17,6.6c-7.2,2.4-14.2,5.4-21.6,7.3
	c-3.2,0.8-6.2,2.7-9.6,3.2c-1.2,0.2-1.8,1.2-1.4,2.5c0.3,1.1,0.6,2.3,1.4,3.2C159.4,624.1,159.5,624.4,159.9,624.5z"/>
<path class="st3" d="M230.4,585.4c-2.5,0.1-4.6,0.9-6.8,2.1c-3,1.6-6.2,2.7-9.3,3.9c-15.7,6.3-31.6,12.2-47.5,17.8
	c-4.2,1.5-8.5,2.8-12.7,4.3c-1.4,0.5-3.1,0.8-3.1,2.8c-0.4-0.4-0.8-0.8-1.1-1.2c-2-2.8-2-2.9,1.3-4.2c6.1-2.4,12.3-4.3,18.5-6.4
	c7.8-2.7,15.7-5.3,23.3-8.5c9.3-3.9,19-7,28.1-11.4c2.3-1.1,4.9-1.8,7.4-2.6c1.9-0.6,2.2-0.3,2.1,1.9
	C230.6,584.3,230.5,584.9,230.4,585.4z"/>
<path class="st3" d="M252.5,426.6c-5.8-1-11.7-1.3-17.6-0.5c-5.9,0.8-11.7,1.5-17.1,4.3c-12.5,6.4-18.5,16.9-18.8,30.7
	c-0.1,4.7,0.3,9.6,1.6,14.3c1,3.3,2.5,6.5,4.1,9.6c0.4,0.8,0.9,1.5,1,2.4c-3.1-4.1-5.5-8.6-7.1-13.5c-0.4-1.3-0.9-2.7-1.3-4.1
	c-3.5-12.2-0.9-23.3,6.4-33.4c1.7-2.3,3.9-4.1,6.3-5.7c13-8.5,26.8-9.6,41.3-4.7C251.8,426.1,252.2,426.4,252.5,426.6z"/>
<path class="st4" d="M250.4,601.5c1.2-0.7,2-0.6,2.1,1c0,0.5,0.1,1.1,0.2,1.6c0,0.3-0.1,0.5-0.4,0.7c-0.8,0-1.6,0.2-1.8,1
	c-0.6,2.2-2.4,4-2.5,6.4c0,0-0.1,0.1-0.1,0.1c-0.7,0.2-1.1,0.6-1.1,1.4c0,0,0,0.1,0,0.1c-2.3,1.2-3.5,3.1-4.1,5.6c0,0,0,0.1,0,0.1
	c-2.1,1-3.8,2.3-4.2,4.8c0,0-0.1,0.1-0.1,0.1c-0.5,0.1-1.2,0.1-1.5,0.5c-3.1,2.7-6.2,5.6-9.6,7.9c-0.6,0.4-0.4,1.2-0.4,1.8
	c-0.1,0.1-0.3,0.2-0.5,0.2c-0.5,0.1-1.2,0-1.6,0.3c-1.8,1.5-3.8,2.4-5.9,3.1c-1.1,0.4-0.7,1.4-0.6,2.2c-0.5,0.6-1.1,1.1-2,1.2
	c-3.5-1-4.3-0.7-4.4,2.2c-0.3,0.1-0.7,0.2-1,0.3c-1.4-0.2-2.8-0.4-4.4-0.7c1.4-1.3,3.5-1.2,4.4-2.8c0,0,0,0,0,0c0.5,0,1-0.2,1.3-0.7
	c0,0,0.1,0,0.1,0c0.7,0,1.5,0,1.8-0.9c0,0,0,0,0,0c0.6,0,1-0.2,1.3-0.7l0.1-0.2c0,0,0.2,0,0.2,0c0.4-0.1,0.8-0.2,1-0.6
	c0.2-0.2,0.5-0.3,0.7-0.5c1,0.5,1.4-0.3,1.8-1c0,0,0.2-0.1,0.2-0.1c0.7-0.1,1.5-0.1,1.7-1.1c4.2-3.3,8.5-6.4,12.4-10.1
	c5.6-5.3,10.1-11.4,14-18c0.5-0.8,1.1-1.6,1.6-2.5C250.2,603.8,250.3,602.7,250.4,601.5L250.4,601.5z"/>
<path class="st3" d="M210.9,640.5c-1,1.6-3,1.5-4.4,2.8c1.5,0.2,3,0.4,4.4,0.7c-3.1,2.2-6.9,2.7-10.4,3.7c-10.2,2.9-20.5,3.5-31,1
	c-0.2-0.3-0.4-0.4-0.8-0.3c-0.4-0.1-0.8-0.2-1.2-0.2c-0.4-0.4-0.9-0.5-1.4-0.4c-0.1-0.1-0.3-0.1-0.5-0.2c-0.1-0.2-0.1-0.4-0.2-0.6
	c0.3,0,0.7-0.1,1-0.1c10.3,2.5,20.3,0.9,30.4-1.5C201.6,644.3,206.1,641.9,210.9,640.5z"/>
<path class="st3" d="M167.4,630.3c0.4,0,0.9-0.1,1.3,0c6.5,1.6,13-0.1,19.5-0.4c-5.6,2-11.4,2.3-17.2,1.7
	C169.7,631.5,168.5,631.2,167.4,630.3z"/>
<path class="st3" d="M188.3,629.9c0-0.9,0.5-1.3,1.4-1.4c0.8-0.1,1.7-0.1,2.5-0.2C190.9,629.1,189.8,630,188.3,629.9z"/>
<path class="st3" d="M250.4,601.6c-0.1,1.1-0.2,2.3-1.5,2.7C249.3,603.3,249.4,602.2,250.4,601.6z"/>
<path class="st3" d="M219.1,636c-0.4,0.7-0.7,1.5-1.8,1C217.8,636.4,218.3,636.1,219.1,636z"/>
<path class="st5" d="M219,503.4c0.9,0,1.1,0.6,1.3,1.3C219.5,504.6,219.3,503.9,219,503.4z"/>
<path class="st3" d="M214,638.9c-0.4,0.8-1.1,0.8-1.8,0.9C212.6,639.1,213.3,638.9,214,638.9z"/>
<path class="st3" d="M220.9,634.8c-0.2,0.9-0.9,1-1.7,1.1C219.6,635.2,220.2,635.1,220.9,634.8z"/>
<path class="st3" d="M215.3,638.2c-0.3,0.5-0.7,0.7-1.3,0.7C214.3,638.4,214.8,638.2,215.3,638.2z"/>
<path class="st3" d="M212.1,639.8c-0.3,0.5-0.7,0.7-1.3,0.7C211.1,639.9,211.6,639.8,212.1,639.8z"/>
<path class="st3" d="M216.6,637.5c-0.2,0.4-0.6,0.5-1,0.6C215.8,637.7,216.1,637.5,216.6,637.5z"/>
<polygon class="st5" points="214.6,498.7 214.6,498.8 214.5,498.7 "/>
<polygon class="st5" points="216.8,501.1 216.8,501.2 216.7,501.2 "/>
<path class="st3" d="M226.8,634.5c0-0.6-0.2-1.4,0.4-1.8c3.4-2.4,6.5-5.2,9.6-7.9c0.4-0.3,1-0.3,1.5-0.5
	C235.3,628.6,231.3,631.8,226.8,634.5z"/>
<path class="st3" d="M218.3,640.3c-0.1-0.8-0.5-1.9,0.6-2.2c2.2-0.7,4.2-1.7,5.9-3.1c0.4-0.3,1-0.2,1.6-0.3
	C224.2,637.3,221.4,639,218.3,640.3z"/>
<path class="st3" d="M248,612.2c0.1-2.4,1.9-4.2,2.5-6.4c0.2-0.8,1-1,1.8-1C251.3,607.5,249.9,610,248,612.2z"/>
<path class="st3" d="M211.8,643.6c0.2-2.9,1-3.3,4.4-2.2C214.9,642.3,213.4,643.1,211.8,643.6z"/>
<path class="st3" d="M242.7,619.3c0.5-2.5,1.8-4.4,4.1-5.6C246,616,244.7,617.9,242.7,619.3z"/>
<path class="st3" d="M238.4,624.2c0.4-2.5,2.1-3.8,4.2-4.8C241.9,621.6,240.1,622.8,238.4,624.2z"/>
<path class="st4" d="M256.4,595.1c-2-1-1.5-2.2-0.5-3.7c1.1,0.6,0.8,1.5,1,2.3C257,594.2,256.9,594.7,256.4,595.1z"/>
<path class="st3" d="M246.8,613.7c0-0.8,0.3-1.2,1.1-1.4C247.8,613,247.4,613.4,246.8,613.7z"/>
<path class="st4" d="M252.8,598.7c0-0.1,0.1-0.2,0.1-0.3c0.3-0.5,0.3-1.3,1.1-1.4c0.4,0,0.6,0.3,0.5,0.7
	C254.4,598.7,253.5,598.6,252.8,598.7L252.8,598.7z"/>
<path class="st4" d="M252.8,598.7c0,0.1-0.1,0.2-0.1,0.2C252.5,598.9,252.5,598.8,252.8,598.7C252.8,598.7,252.8,598.7,252.8,598.7z
	"/>
<g>
	<path class="st6" d="M553,889.8c-66.3,0-130.6-19-186-55c-53.9-35-96.8-84.3-124-142.4c-5.5-11.8-0.4-25.7,11.3-31.2
		c11.8-5.5,25.7-0.4,31.2,11.3c23.4,50.1,60.4,92.6,107,122.9c47.7,31,103.2,47.4,160.4,47.4c60.1,0,117.8-17.9,167.1-51.9
		c48.1-33.2,85.1-79.2,106.8-133.3c4.8-12,18.5-17.9,30.6-13c12,4.8,17.9,18.5,13,30.6c-25.2,62.6-67.9,116-123.7,154.4
		C689.6,869,622.6,889.8,553,889.8z"/>
	<path class="st7" d="M828.9,388.5"/>
	<path class="st6" d="M822.9,402c-7.8,0-15.5-3.9-19.9-11c-26.1-41.5-62.4-76.2-105.1-100.3c-44-24.8-94.1-38-144.9-38
		c-100.7,0-193.5,50.6-248.2,135.4c-7,10.9-21.6,14.1-32.5,7c-10.9-7-14.1-21.6-7-32.5c30.4-47.2,72.4-86.6,121.4-113.9
		c50.6-28.2,108.1-43.1,166.3-43.1c58.9,0,117,15.2,168,44c49.4,27.9,91.5,68.1,121.8,116.2c6.9,11,3.6,25.5-7.4,32.4
		C831.5,400.8,827.2,402,822.9,402z"/>
	<path class="st6" d="M946.8,103.5c-56-6.9-110.9-14-165.8-20.5c-64.7-7.7-121.9,10.1-171,52.6c-28.6,24.8-49,55.4-61.5,92.4
		c56,6.9,110.9,14,165.8,20.5c64.7,7.7,121.9-10.1,171-52.6C913.9,171.1,934.2,140.5,946.8,103.5z"/>
	<g>
		<path class="st6" d="M686.4,405.1c3.1,0,6.2-0.1,9.4,0c3.8,0.1,4.6,1.1,4.2,4.7c-1.2,11.1-6.3,19.7-17.3,23.1
			c-13.1,4.1-26.9-0.3-33-14.8c-4.2-9.9,0.7-22.5,5.9-26.7c9.2-7.5,18.8-9.8,30.1-4.5c1.8,0.8,3.5,1.9,5.1,3
			c1.6,1.1,1.5,2.3,0.3,3.5c-1.9,1.9-3.8,3.9-5.7,5.7c-2,1.8-2.8,1.8-5.2,0.3c-5.2-3.4-8.5-3.2-12.6,0.4c-5.4,4.7-5.5,11-3.2,15
			c3.1,5.4,7.9,7.7,13.5,6.4c2.1-0.5,4.1-1.4,5-3.6c0.7-1.7-0.2-2.8-2-2.5c-0.7,0.1-1.3,0.5-2,0.7c-3.3,0.6-5.2-0.9-5.3-4.2
			c-0.3-5.8,0.3-6.3,6.1-6.2c2.3,0,4.5,0,6.8,0C686.4,405.2,686.4,405.2,686.4,405.1z"/>
		<path class="st6" d="M573.3,434.3c-14.6,0.3-24.7-9.8-25.8-22.9c-0.9-11.6,4.7-20.6,16-25.4c11.1-4.7,23.4-0.5,30.1,8.2
			c4.4,5.6,6.2,12.1,4.8,19.2C595.9,426.7,585.7,434.1,573.3,434.3z M584.5,410c-0.1-1,0-1.9-0.2-2.7c-1-6.6-8.9-12.2-14.3-9.8
			c-7.4,3.3-10.7,12.1-6.2,18.3c3.2,4.4,7.6,6.7,11.9,5.5C580.1,420,584.4,414.4,584.5,410z"/>
		<path class="st6" d="M503.6,409.5c0-6.7,0-13.4,0-20c0-3.7,0.4-4.3,4-4.2c6.5,0.1,13.1,0.1,19.6,0.4c6.6,0.3,11.4,4.3,12.8,10
			c0.8,3.3,0.2,6.1-2.3,8.6c-3.1,3.1-3,3.8,0.7,6.5c6.2,4.6,6.5,13.1,0.6,18.3c-3.5,3.1-7.5,4.9-12.4,4.8c-6.2-0.1-12.5,0-18.8,0
			c-4.2,0-4.6-0.3-4.2-4.3C504.2,422.9,503.8,416.2,503.6,409.5z M517.1,418.4c0,3.9,0.6,4.6,4.4,4.6c4.8,0,7.4-1.6,7.4-4.5
			c0-3-3-5.1-7.2-5C518.1,413.4,517.1,414.6,517.1,418.4z M521.5,404.8c3.8,0,5.3-1.3,5.2-4.5c-0.1-3.3-2-5-5.6-4.9
			c-3.4,0.1-4,0.9-4,4.9C517.1,404.3,517.7,404.9,521.5,404.8z"/>
		<path class="st6" d="M479.7,401.4c0-4.5,0.1-9.1,0-13.6c0-1.9,0.6-3,2.6-3.2c3.4-0.3,6.8-0.2,10.2,0c1.5,0.1,2.3,1,2.4,2.5
			c0,0.1,0.1,0.3,0,0.4c-0.5,10.4,1,20.8-0.7,31.1c-1.4,8.2-9.4,15.1-16.7,15.3c-2.4,0.1-4.8,0.3-7.2,0.2
			c-10.8-0.1-18.6-8.7-19.2-19.5c-0.2-3.8,0-7.7,0-11.5c0-4.5-0.2-9.1-0.2-13.6c0-4.5,0.7-5.1,5.3-5.1c2,0,4,0.1,6,0.1
			c3.3,0.1,3.7,0.5,3.8,3.7c0.1,5,0,10,0.1,14.9c0,3.7-0.1,7.4,0,11.1c0.2,4.4,2.1,6.6,5.9,7.1c4.7,0.6,7.7-1.9,7.9-6.6
			c0.1-2.3,0-4.5,0-6.8C479.8,405.7,479.8,403.6,479.7,401.4C479.7,401.4,479.7,401.4,479.7,401.4z"/>
		<path class="st6" d="M605.5,410.3c-0.1-7.6,0.3-14.4-0.3-21.2c-0.3-3.2,0.5-3.9,3.6-3.8c6.8,0.1,13.6,0.4,20.4,0.4
			c9.4,0,19.1,11.9,12.8,23.1c-1,1.8-2.5,3-4,4.3c-2.6,2.2-2.8,2.8-0.9,5.7c2.4,3.7,4.8,7.4,7.2,11c0.5,0.7,1,1.4,1.4,2.1
			c0.4,0.9,0.4,1.8-0.8,1.8c-4.4,0.1-8.8,0.1-13.2,0c-1.7,0-2.4-1.5-3.1-2.7c-1.4-2.6-2.6-5.4-3.9-8c-0.8-1.8-1.6-3.7-3.3-4.9
			c-1.5-1.1-2.7-0.5-2.8,1.4c0,1.1,0.2,2.3,0.3,3.4c0.2,2.5,0.5,5.1,0.5,7.6c0,2.7-0.4,3.1-3.3,3.2c-2.7,0.1-5.4,0.1-8.1,0
			c-2.8-0.1-3.2-0.5-3-3.4C605.7,423.4,605.3,416.5,605.5,410.3z M618.9,401.5c0,4.7,0.7,5.6,3.8,5.5c4.6-0.1,6.6-1.7,6.5-5.4
			c-0.1-3.4-2.4-5.5-6.2-5.6C619.8,396.1,618.9,397.3,618.9,401.5z"/>
		<path class="st6" d="M424.3,385.4c5.7,0,11.4,0,17,0c3.1,0,3.3,0.1,3.8,3.2c0.2,1.1,0.2,2.3,0.2,3.4c-0.1,4.9-0.9,5.6-5.8,5.2
			c-2-0.1-4-0.2-6-0.2c-1.4,0-2.1,0.6-2.2,2c-0.1,1.4-0.4,2.8-0.3,4.2c0.7,8.9,0,17.9,0.4,26.9c0.2,3.4-0.3,3.7-3.5,3.8
			c-2.7,0-5.4,0.1-8.1-0.1c-2.7-0.1-3.4-0.7-3-3.4c1.1-8.5,0.1-17,0.6-25.6c0-0.6,0-1.1,0.1-1.7c0.1-5.6-0.8-6.4-6.5-6
			c-1.8,0.2-3.6,0.4-5.5,0.2c-1.8-0.2-2.4-1-2.6-2.7c-0.9-8.8-0.4-9.3,8.5-9.1c4.3,0.1,8.5,0,12.8,0
			C424.3,385.5,424.3,385.4,424.3,385.4z"/>
	</g>
	<g>
		<path class="st6" d="M516.6,730.2c10.2,0,20.9,8.9,22.3,18.7c0.6,3.9-0.9,7.4-3,10.4c-4.1,6.1-8.5,12.1-13.1,17.9
			c-3,3.8-7.3,5.8-12,6.9c-2.1,0.5-4.1,0.7-5.4-1.2c-1.4-1.9-0.9-3.7,0.6-5.5c1.5-1.8,3.1-3.6,4.3-5.6c2.1-3.6,1.3-6-2.8-7.9
			c-9.1-4.3-12.4-10.3-10.5-17.9C499.6,736.3,507.2,730.1,516.6,730.2z M517.6,757.3c3.6,0.1,6.3-2.9,6.5-7.3
			c0.2-4.4-3.4-8.3-7.9-8.4c-4-0.1-6.2,2.1-6.5,5.9C509.2,752.4,513.1,757.1,517.6,757.3z"/>
		<path class="st6" d="M559,731.3c5.4,0,10.8-0.4,16.1,0.1c6.4,0.6,8.4,3.8,4.5,8.6c-6.2,7.7-3.5,13.8,1.7,19.7
			c3.9,4.4,3.3,8.1,0.5,12.7c-8.4,13.6-21.9,16.5-33.2,7.2c-2.8-2.3-5.3-4.9-3.4-8.5c2.1-4.1,5.9-3.8,9.7-2.2
			c2.1,0.9,3.9,2.7,6.4,2.8c3.7,0.1,6.7-1.1,8.1-4.7c1.1-3-0.4-5.3-3-6.7c-4.4-2.6-7.7-5.4-5.6-11.3c1-2.7-0.9-4.4-3.5-5.1
			c-0.3-0.1-0.7-0.1-1-0.2c-4.6-0.3-9.2-1-8.9-7.1C547.5,733.1,553.1,730.5,559,731.3z"/>
		<path class="st6" d="M615,730c2.8,0.3,5.1-0.2,6.3,1.9c1.4,2.5-0.1,4.5-1.6,6.4c-0.8,1-2.1,1.7-3,2.7c-3.6,4.4-3.2,6.2,2,9
			c3.3,1.8,6.2,3.9,8.8,6.7c1.6,1.8,3,3.7,3.5,6.1c2.2,9.7-5.6,13.7-11.2,18.7c-5.7,5-9.5,5.1-15.6,1.5c-5.7-3.4-9.7-8.3-12.5-14.2
			c-1.4-2.9-1.6-5.7-0.5-8.8c3.7-10,9.5-18.5,16.7-26.2C610,731.3,612.4,729.6,615,730z M604.7,762.7c0.1,5.9,2.2,8.8,6.4,8.5
			c3.7-0.3,6.4-1.7,6.2-6.2c-0.2-4.9-3.7-8.9-7.9-8.5C605.5,756.9,604.4,759.5,604.7,762.7z"/>
		<path class="st6" d="M474.3,760.8c0.2-2.7,0.1-5.4,0.5-8c0.8-4.7,0.6-8.6-4.8-10.7c-2.6-1-4.6-3.2-4.1-6.2
			c0.5-3.3,3.6-3.6,6.1-4.3c2.9-0.8,5.9-1.2,9-0.7c3.4,0.6,6,2.2,5.9,5.8c-0.4,13.1,2.2,26.1,0.9,39.2c-0.3,3.3-0.5,7.1-5.4,7.1
			c-5.1,0-8-2.5-8.6-8c-0.3-2.3,0.1-4.7,0.2-7c0-2.4,0-4.7,0-7.1C474.1,760.8,474.2,760.8,474.3,760.8z"/>
	</g>
	<g>
		<path class="st6" d="M585.8,931.6c2.6-0.5,5,1.3,7.2,4.6c3.3,5.2,7.1,10.1,10.7,15.1c1.2,1.6,2.4,3.2,3.6,4.7
			c0.8,0.9,1.7,1.9,3.1,1.5c1.9-0.6,1.7-2.2,1.5-3.7c-0.9-4.6-1.8-9.2-2.8-13.8c-0.2-1.2-0.7-2.4-0.8-3.6c-0.5-5.2,1.3-7.8,5.8-8.6
			c5.8-1.1,8.5,0.4,9.8,5.8c3.7,15.4,5.4,31.1,6.8,46.8c0.3,3.6-0.4,5.9-5.9,6.7c-6.9,0.9-11.8-0.5-15.8-6.6
			c-4.2-6.4-9.4-12.1-14.2-18.1c-0.9-1.1-2-2.6-3.6-1.6c-1.1,0.7-1.1,2.2-0.8,3.4c1.3,5,2.5,10,4,15c2.5,8-2.9,14.1-11.3,12.7
			c-2.9-0.5-4-2.5-4.3-5.2c-2-15.4-4-30.8-6-46.2c-0.8-6.4-0.2-7.1,6.3-8.1C580.9,932,582.7,931.9,585.8,931.6z"/>
		<path class="st6" d="M857.6,857.2c0.1,6.3-1.8,11.7-5.5,16.7c-2.9,3.8-6.2,7.1-9.6,10.3c-4.3,4.1-9.1,7.5-13.2,11.9
			c-2.9,3.1-4.9,3-7.4-0.3c-9-12.1-19.3-23.2-29.8-34c-1.2-1.2-2.2-2.7-3.1-4.1c-1.5-2.5-1.3-4.8,1.5-6.3
			c6.4-3.5,11.3-8.8,16.5-13.7c5-4.7,11.4-6.7,17.5-9.4c2.7-1.2,5.9-0.7,8.8-0.2C844.2,830,858.8,844.3,857.6,857.2z M841.4,859.7
			c0.2-1.6-0.2-2.9-0.9-4.3c-5.9-11.6-13.3-13.7-24.3-6.8c-0.8,0.5-1.7,1-2.5,1.6c-2.9,2.4-3.4,4.8-1.1,7.6
			c4.2,5.1,8.7,10,13.1,14.9c1.9,2.1,4.4,2.5,6.6,0.7C837,869.9,840.2,865.4,841.4,859.7z"/>
		<path class="st6" d="M751.4,881c1.8-0.2,3.4,0.3,4.9,1.3c5.2,3.7,11.5,5.8,16.5,9.9c1.1,0.9,2.5,1.6,3.9,2.1
			c1.6,0.6,3.4,1.5,4.7-0.3c1.1-1.6,0.4-3.4-0.7-4.8c-3.4-4.3-7-8.3-9.8-13c-3.2-5.2,0.3-13,6.4-13.9c3.2-0.5,4.8,1.9,6.3,4.3
			c6.3,10,12.6,20.1,19,30.1c1.9,2.9,3.9,5.7,5.9,8.6c1.6,2.4,1.7,4.6-1.1,6.3c-0.8,0.5-1.7,1.1-2.5,1.6c-8.5,5.9-8.9,5.9-17.8,0.4
			c-4.8-3-9.8-5.7-14.7-8.5c-1.5-0.8-3.2-1.3-4.8-1.9c-1.2-0.4-2.5-0.3-3.3,0.9c-0.5,0.9-0.1,1.8,0.5,2.7
			c3.7,5.2,7.4,10.5,11.1,15.7c3.8,5.2,3.8,5.6-1.4,10c-0.8,0.6-1.4,1.4-2.2,2c-3.6,2.8-5.1,2.7-7.9-0.9c-1.1-1.4-1.9-2.9-2.7-4.4
			c-6.2-11.6-13.8-22.3-21.7-32.7c-1.2-1.6-2.5-3.1-2.7-5.2c-0.1-1.3-0.2-2.5,0.5-3.6C738.9,885.9,749.1,881,751.4,881z"/>
		<path class="st6" d="M294.8,840.2c-0.3,1.2-0.5,2.4-1,3.6c-5.5,12.7-10.2,25.7-14.8,38.7c-0.7,2.1-1.5,4.2-2.2,6.3
			c-2,6.6-3.5,7-9,2.3c-1.5-1.3-2.9-2.7-4.4-4c-2.7-2.5-3.3-5-1.5-8.5c3-5.6,2.6-6.1-1.9-9.9c-2.5-2-4.9-4.1-7.3-6.3
			c-2.1-1.8-3.8-2.2-6.4-0.2c-5.2,4.2-5.9,3.9-10.4-0.6c-0.4-0.3-0.6-0.8-1-1.1c-7.4-7.7-7.2-7.4,2-11.9
			c12.8-6.3,25.3-13.2,37.9-19.9c3.6-1.9,7.4-3.9,11-0.7C289.7,831.5,294.8,834.1,294.8,840.2z M276.7,846.3
			c-5.1-0.2-9.8,1.9-11.9,5.5c-1.3,2.3-1.7,4.7,0.8,6.5c2.1,1.5,5.7,0.6,6.9-2C273.9,853,276.2,850.1,276.7,846.3z"/>
		<path class="st6" d="M700,960c-0.3-13.3,0.5-26.6-1.8-39.7c-0.2-1.5-0.2-3-0.4-4.4c-0.7-8.3,5.8-16,14-16.8c2.1-0.2,3.8,0.5,5.3,2
			c12.1,11.9,24.3,23.8,36.5,35.7c0.5,0.5,1.1,1,1.5,1.6c2.3,3.2,1.9,4.7-1.6,6.2c-1.6,0.7-3.3,1.1-4.8,1.8c-6.9,3.2-7,3.3-11.5-2.5
			c-2.3-2.9-4.8-3.1-7.8-1.7c-2.7,1.3-5.1,3-7.8,4.2c-3.1,1.4-4.6,3.5-4.3,6.9c0.2,2.4,0.4,5.2-2,6.8c-3.5,2.3-6.9,5-11.3,5.3
			C700.9,965.7,699.4,963.7,700,960z M710.9,923.3c0.7,2.5,1,4.9,2,7.2c1.2,2.8,5.5,4.4,8.2,3.1c2.1-1,3.6-2.6,3.1-5.2
			c-0.6-3-6.4-7.9-9.7-8.3C712,919.8,710.7,920.8,710.9,923.3z"/>
		<path class="st6" d="M440.8,922.8c-0.2,0.7-0.5,2.2-1,3.6c-1.7,4.5-3.6,5.4-7.9,3.8c-2.1-0.8-4-1.9-6-3c-1.5-0.9-3.1-1.4-4.9-1.5
			c-2.1-0.1-4.1,0.3-4.7,2.6c-0.6,2-0.2,4,1.8,5.2c3.2,1.9,6.5,3.4,10.1,4.6c5.7,2,6.6,3.7,4.8,7.8c-2.2,5.2-5.5,6.2-10.6,3.3
			c-2.4-1.3-4.6-3-7.3-3.3c-2.8-0.3-5,0.8-5.7,3.6c-0.7,2.6,1,4.1,3.2,5c3.6,1.5,7.4,2.8,10.9,4.6c3.8,2,4.5,4.8,2.8,8.7
			c-1.7,3.9-4.2,5.2-8.1,3.9c-7.9-2.6-15.9-5.2-23.7-8.1c-7.3-2.7-8.3-5.8-4.1-12.3c3.5-5.3,4.3-11.5,6-17.4
			c2.4-8,6.6-15.4,8.2-23.8c0.6-3.3,2.9-4.1,7.1-2.6c4.9,1.7,9.7,3.6,14.5,5.7c3.6,1.6,7.3,3,11.2,3.8
			C440.1,917.5,441.5,919.1,440.8,922.8z"/>
		<path class="st6" d="M629.6,928.5c3.9-3.5,8.6-4.2,12.9-5.9c3-1.2,5.3,0.8,6.9,3.1c3.4,5.1,6.6,10.4,9.9,15.7
			c0.4,0.6,0.5,1.4,0.9,2c1.6,2.8,3.2,7.1,6.3,6.5c4.1-0.9,1.6-5.4,1.8-8.3c0.6-6.6,1-13.3,0.1-20c-0.5-3.3,1.1-5.7,4.3-7
			c0.5-0.2,0.9-0.4,1.4-0.5c10.3-4.3,12.3-3,11.3,8c-1.2,13.8-1.2,27.6-1.8,41.5c-0.4,8.6-11.2,15.9-19,12.6c-1.7-0.7-2.8-2-3.7-3.5
			c-8.4-13.4-17.7-26.2-27.6-38.5C631.9,932.4,630.9,930.4,629.6,928.5z"/>
		<path class="st6" d="M511.5,992.1c-7.2-1.6-14.2-3.7-19.8-9.1c-2.3-2.2-5.1-4.5-3.1-8.2c2.3-4.1,8.4-6,12.3-3.9
			c1.7,0.9,3.3,2.2,4.9,3.4c1.4,1.1,2.9,1.9,4.6,2.2c1.9,0.3,3.4-0.2,4.3-2c0.9-1.9,0.3-3.4-1.3-4.5c-2-1.4-4.2-2.6-6.4-3.8
			c-2.4-1.3-4.8-2.5-7.2-3.9c-5.7-3.3-9.8-7.8-8.6-15c1.2-7.5,7.3-13.9,14.5-15.1c7.5-1.3,14.8-1.2,21.5,3c1.2,0.8,2.5,1.6,3.6,2.6
			c3.6,3.4,4.1,5.5,2.2,8.2c-3,4.3-7,5.9-10.8,3.9c-2.6-1.4-5.2-2.9-8.1-3.6c-2.3-0.5-4.7-0.1-5.7,2.3c-1,2.6,1.1,4.1,3.1,5.2
			c4.1,2.3,8.8,3.2,13.1,5.1c10.6,4.9,13,17.1,4.3,25.5C524.3,988.9,518.1,991,511.5,992.1z"/>
		<path class="st6" d="M372.3,931.8c-4.1,0.4-8.1-1.4-12.1-3.5c-4-2.1-5.6-1.5-7.2,2.6c-0.9,2.3-1.5,4.7-2.4,7
			c-0.6,1.7-1.8,2.9-3.8,3.2c-3.3,0.5-12-3.8-13.5-6.8c-1.1-2.1-0.1-3.7,0.9-5.5c6.9-13.3,13.8-26.7,20.6-40.1
			c2.2-4.3,4.1-5.4,8.1-3.3c6.1,3.2,12.1,6.6,18.1,10c0.9,0.5,1.7,1.1,2.5,1.6c14.8,10.8,12.2,21.7-0.2,32
			C380.3,931.6,378.6,931.9,372.3,931.8z M375.8,910.7c0.1-3.6-3.4-7-7-6.9c-3,0.1-5.4,3.6-5.5,7.7c0,3.3,2.1,5.7,5.3,5.9
			C372.4,917.7,375.7,914.6,375.8,910.7z"/>
		<path class="st6" d="M324.9,905.5c-3.4-0.9-7.3-2-10.8-4.6c-6.2-4.6-8.2-4-11.9,2.8c-3.9,7-6.8,7.6-13.3,2.8
			c-1.2-0.9-2.5-1.6-3.6-2.6c-2.4-2.1-2.8-4.5-0.6-7.1c10.2-12.1,18.9-25.1,27-38.7c2.4-4,5.6-4.9,8.5-1.9
			c6.4,6.6,14.2,11.4,20.5,18.1c5,5.3,6.5,10.8,3.3,17.3C340.2,899.3,335,905.3,324.9,905.5z M322.1,889.5c4.3,0,7.4-2.4,7.3-5.6
			c-0.1-4.1-3.4-8.1-6.4-7.9c-3,0.2-7.5,5.4-7.3,8.4C316,887.2,318.9,889.5,322.1,889.5z"/>
		<path class="st6" d="M468.6,929.2c-0.1,0.7,0.1,1.6-0.2,2.2c-4.4,8.6-3.6,18.3-6.6,27.2c-2.1,6.3-0.2,9.2,6.4,10.5
			c1.7,0.3,3.4,0.4,5.1,0.7c6.4,1.1,9.2,6.6,6.1,12.5c-1.2,2.4-3.7,2.8-5.8,2.1c-8.9-3.2-18.6-2.6-27.5-5.6c-6.5-2.2-7.1-4.4-5-11.1
			c2.2-7.3,3.8-14.7,5.4-22.2c1.1-5.3,1.7-10.7,2.7-16.1c0.6-3.1,0.3-7.2,4-8.1c4.6-1.1,9.3-0.1,13.5,2.5
			C468.8,925.1,468.5,927.3,468.6,929.2z"/>
		<path class="st6" d="M562.9,967.8c0,7.8,0,13.8,0,19.7c0,2.7-1.2,4.2-3.9,4.4c-1,0.1-2,0.2-3,0.2c-11.6,0.8-14.2-2-12.1-13.7
			c0.6-3.5,0.3-6.9,0.3-10.3c-0.1-8.9-0.5-17.8-0.5-26.7c0-2.8-0.8-6.6,2.6-7.8c4.4-1.6,9.1-2.6,13.7-0.3c2.4,1.3,1.8,3.9,1.9,6
			C562.3,949.4,563.4,959.5,562.9,967.8z"/>
	</g>
	<path class="st8" d="M375.2,712c0.3,1.3,0.6,2.7,0.9,4c0.2,1.4-0.4,2-1.8,1.7c0.8-1-0.4-1.3-0.6-2c0.1-0.9,0.3-1.8,0.4-2.8
		C374.5,712.6,374.9,712.3,375.2,712z"/>
	<path class="st8" d="M373.1,717.7c-1.5,0.5-2.9,0.7-4.4,0.3C370.1,717.2,371.5,717.1,373.1,717.7z"/>
	<path class="st8" d="M351.8,721.1c0.6,0.9,1.1,1.8,1.7,2.7C351.5,723.8,351.5,722.5,351.8,721.1z"/>
	<path class="st8" d="M354,718.8c-0.2,0.1-0.4,0.1-0.6,0.2C353.5,718.6,353.7,718.5,354,718.8z"/>
	<path class="st8" d="M358.5,718.7c-0.2,0-0.4,0-0.7-0.1C358.1,718.3,358.3,718.3,358.5,718.7z"/>
	<path class="st8" d="M352.4,719.7c0.2,0.3,0,0.5-0.2,0.5C352.1,720,352.2,719.8,352.4,719.7z"/>
	<path class="st9" d="M372.5,708.4c0.2-4.4,2-8.4,2.9-12.6c1.7-7.8,3.7-15.6,5.7-23.3c0.4-1.7,0.5-3.6,1.9-5
		c0.2,0.3,0.4,0.5,0.6,0.8c-0.5,2.1,0.5,4.2-0.3,6.3c-1.3,1.5-1.8,3.1-1.6,5.1c0.1,1,0,2.5-0.6,3c-2,1.7-1.2,4.3-2.2,6.2
		c-0.4,0.8,0.3,1.1,0.9,1.3c-0.5,0.6-0.2,2-1.1,1.8c-1.3-0.3-1.2,0.3-1.2,1.1c0,1.5-0.9,3.1,0.1,4.6c0.2,0.3,0.2,0.9-0.2,1.2
		c-2.5,2.1-1.7,4.7-1.1,7.3c0,0-0.1,0.1-0.1,0.1c-0.3,0.4-0.7,0.9-1,1.3c-0.4-0.5-0.9-0.5-1.2,0C373.5,708,373.1,708.3,372.5,708.4z
		"/>
	<path class="st4" d="M372.5,708.4c0.5-0.1,0.9-0.3,1.2-0.8c0.4-0.5,0.8-0.5,1.2,0c0,0.3,0.1,0.5,0.1,0.8c0,0.6,0,1.2,0.1,1.7
		c-0.8,0-1.6,0.1-2.4,0.1C372.4,709.7,372.2,709,372.5,708.4z"/>
	<path class="st9" d="M372.8,710.3c0.8,0,1.6-0.1,2.4-0.1c0.2,0.6,0.2,1.3,0.1,1.9c-0.4,0.3-0.8,0.6-1.1,0.9
		C373.4,712.2,372.8,711.3,372.8,710.3z"/>
	<path class="st9" d="M383,667c1,0,2.2-0.5,3.1,0.5c-0.1,0.2-0.2,0.4-0.3,0.7c-0.3,0.3-0.3,0.7-0.3,1.1c0,0,0,0.1,0,0.1
		c-0.6-0.4-1-1.2-1.9-1.1c-0.2-0.3-0.4-0.5-0.6-0.8C382.9,667.3,383,667.1,383,667z"/>
	<path class="st3" d="M376.2,706.1c-0.6-2.6-1.4-5.2,1.1-7.3c0.3-0.3,0.4-0.8,0.2-1.2c-1-1.5-0.1-3.1-0.1-4.6c0-0.8-0.1-1.4,1.2-1.1
		c0.9,0.2,0.6-1.3,1.1-1.8c-0.1-0.8,0.3-1.2,1.1-1.4c-1,3.8-1.8,7.7-2.9,11.5C377.3,702.2,377.6,704.4,376.2,706.1z"/>
	<path class="st8" d="M380.8,688.8c-0.8,0.1-1.2,0.6-1.1,1.4c-0.6-0.2-1.3-0.4-0.9-1.3c1-2,0.3-4.5,2.2-6.2c0.6-0.5,0.7-2,0.6-3
		c-0.2-2,0.3-3.7,1.6-5.1c0.2,0,0.4,0,0.6,0c0.1,1.9-0.7,3.7-1,5.5C382.2,682.9,381.5,685.8,380.8,688.8z"/>
	<path class="st3" d="M383.8,674.5c-0.2,0-0.4,0-0.6,0c0.8-2.1-0.2-4.2,0.3-6.3c0.9-0.1,1.3,0.7,1.9,1.1
		C385.2,671.2,384.8,673,383.8,674.5z"/>
	<path class="st3" d="M375.1,708.4c0-0.3-0.1-0.5-0.1-0.8c0.3-0.4,0.7-0.9,1-1.3C376,707.1,376.3,708,375.1,708.4z"/>
	<path class="st3" d="M385.5,669.3c0-0.4,0-0.8,0.3-1.1C385.8,668.6,385.8,669,385.5,669.3z"/>
	<path class="st10" d="M378.9,706.6c-6.9,0.3-13.7,0.5-20.6,0.9c-2.2,0.1-4.3,0.5-6.5,0.6c-2.6,0.1-3.1-0.6-2.6-3.2
		c2-9.7,4-19.4,6-29.2c0.2-1.1,0.6-2.1,0.3-3.2c0.9-1.3,1.5-2.6,1.7-4.2c0.2-2.5,1-4.9,1.4-7.4c0.5-3,1.6-5.9,2.1-8.9
		c1.1-6.9,3-13.6,4.3-20.4c1.2-6,2.9-11.9,3.8-17.9c0.8-4.3,3.1-8.2,3.2-13c-0.8,0.4-1.2,0.4-1.3,0.7c-1.2,1.7-2.5,3.3-3.6,5.1
		c-5.5,9.8-12.9,17.8-22.2,24.1c-5.5,3.8-11.5,5.7-18.2,5.1c-1.6-0.5-3.2-1-4.8-1.5c-8-3.7-12.8-10-15.4-18.2
		c-2-6.6-2.4-13.5-2.2-20.4c0.2-7.8,1.7-15.4,3.9-22.9c0.4-1.2,0.9-2.5,0.8-3.8c1.7-3.2,2.9-6.6,4.2-10c0.9-2.1,2.7-3.8,2.8-6.3
		c-1.3-0.3-2,0.3-2.7,0.8c-7.1,5.1-14.8,9.2-22.6,13.1c-2.9,1.4-4.2,3.4-4,6.3c0.2,5.6-1.8,10.7-2.9,16c-1,4.6-3.2,8.8-4.8,13.2
		l0,0.1c-0.9,0.7-1.1,1.8-1.5,2.7c-0.5,0.8-1.1,1.6-1.6,2.5c-3.9,6.6-8.4,12.7-14,18c-3.9,3.7-8.2,6.8-12.4,10.1
		c-0.6,0.2-1.3,0.4-1.7,1.1l-0.2,0.1c-0.7,0.1-1.3,0.4-1.8,1c-0.2,0.2-0.5,0.3-0.7,0.5c-0.4,0-0.8,0.2-1,0.6l-0.2,0l-0.1,0.2
		c-0.5,0-1,0.2-1.3,0.7l0,0c-0.7,0-1.4,0.2-1.8,0.9l-0.1,0c-0.5,0-1,0.2-1.3,0.7l0,0c-4.8,1.5-9.3,3.8-14.2,5
		c-10,2.4-20.1,4-30.4,1.5c-0.3-0.1-0.6,0-1,0.1c-0.7-0.2-1.5-0.3-2.2-0.5c-0.4-0.5-0.9-0.6-1.5-0.5c-0.3-0.4-0.6-0.6-1.1-0.6
		c-0.4-0.6-1.1-0.7-1.7-0.8l0,0c-0.4-0.6-1-0.9-1.7-0.9c-1.9-1.1-3.9-2.2-5.8-3.3c-2.3-2.2-4.9-4-7.2-6.2
		c-6.4-6.3-10.2-14.1-12.8-22.5c-0.6-1.9-1.1-3.8-1.5-5.7c-0.6-3.2,0-4.4,3.1-5c5.3-1,10.2-3.2,15.4-4.4c4.7-1.1,9.4-2.9,14-4.4
		c6.1-2,12.2-4.1,18.4-5.8c3.6-1,7.1-2.3,10.5-3.6c6.9-2.6,13.9-5.3,20.8-7.9c3.9-1.5,7.8-2.9,11.7-4.3c0.6-0.2,1.2-0.5,1.8-0.7
		c3.7-1.6,3.8-2.6,1.8-6.2c-4.5-8.1-10.4-15-17.2-21.3c-5.3-5-10.5-10.2-15.5-15.5c-6.7-7-12.9-14.6-17.8-23
		c-5.5-9.4-8.5-19.6-7.9-30.7c0.3-4.9,0.5-9.8,1.8-14.6c3.5-13.1,10.4-24.1,21.6-31.9c8.9-6.2,18.9-10.1,29.4-12.3
		c7.3-1.5,14.7-1.7,22.2-0.9c7.7,0.8,14.9,3.2,21.9,6.3c4,1.8,7.2,4.9,10.5,7.8c0.8,0.7,1.6,1.5,2.4,2.2c1.3,1.5,1.9,3.5,3.4,4.9
		c0.1,1.4,0.8,2.6,1.9,3.5c0.1,1.1,0.8,1.9,1.1,2.9c0.1,0.5,0.8,1.1,0.1,1.6c0.1,1.4,0.2,2.8,0.3,4.1c0,0,0,0,0,0
		c-1.2,1.5-1.9,3.4-3.4,4.7c-1,0.9-2,1.7-3.1,2.3c-3.6,1.8-6.2,0.6-7-3.3c-0.6-2.9-1.4-5.6-2.6-8.3c-1.2-2.6-2.9-4.8-4.7-6.9
		c-3.3-4-7-7.3-12-8.8c-0.4-0.2-0.7-0.5-1.1-0.6c-14.5-4.9-28.4-3.9-41.3,4.7c-2.4,1.6-4.6,3.4-6.3,5.7c-7.3,10.1-9.9,21.2-6.4,33.4
		c0.4,1.4,0.9,2.7,1.3,4.1c1.6,4.9,4,9.4,7.1,13.5c2.7,4,5.5,7.9,8.8,11.4l-0.1,0l0.1,0c0.7,0.8,1.4,1.6,2.2,2.4l-0.1,0l0.1,0
		c0.7,0.8,1.3,1.6,2.2,2.1c0.3,0.6,0.5,1.2,1.3,1.3c0.4,0.6,0.8,1.1,1.5,1.3c8.3,9.2,17.2,17.7,24.9,27.4c0.3,1.1,1,1.8,1.7,2.7
		c3.6,4.9,6.8,10.1,8.9,15.9c1.3,3.7,1.9,4,5.1,1.6c0.3-0.2,0.4-0.5,0.6-0.7c2-0.2,3.2-1.8,4.8-2.6c6.9-3.3,13.3-7.4,20-11.2
		c3.8-2.1,7.4-4.6,11.1-7c0.3-0.2,0.5-0.6,0.8-1c2-0.7,3.6-1.9,5.1-3.4c1.7-1.7,3.4-3.4,5.2-5c7.9-7.2,16.5-13.3,26.9-16.3
		c1.3-0.4,2.4-0.9,3.5-1.7c2.1,0.3,4.1-0.2,6.1-0.5c4.3-0.6,7.7,0.6,10.2,4.1c0.2,1.3-0.3,2.6-0.6,3.9c-0.2,0.1-0.3,0.2-0.2,0.4
		c-0.6,0.3-1.2,0.5-1.6,1.1l-0.2,0c0,0-0.1,0.1-0.1,0.1c-1.3,0.3-2.6,0.5-3.8-0.2c-2.7-1.6-5.2-0.9-7.7,0.5
		c-1.3,0.7-2.7,1.5-3.9,2.4c-9.8,7.3-17,16.8-23.5,27.1c-4,6.3-6.6,13.3-8.9,20.4c-2.5,7.7-4.1,15.7-3.7,23.8
		c0.2,4.8,0.8,9.6,4.4,13.4c2.9,3.2,6.4,4.6,10.6,3c2.8-1.1,5.5-2.7,7.7-4.8c4.2-4,7.3-8.9,10.7-13.6c0.6-0.8,0.7-1.8,0.9-2.8
		c0.7-0.4,1-1.1,1.2-1.8c0.9-1.1,1.6-2.3,1.9-3.6c0.2-0.2,0.6-0.4,0.7-0.6c2.9-5.9,5.8-11.7,7.8-18c2.9-9,6.1-18,9.2-27
		c1.2-3.5,2.3-7,3-10.7c1.4-3,2.9-6,1.9-9.5c0-0.4,0-0.9,0-1.3l0-0.1c0.3-0.6,0.2-1.3,0.1-1.9c-0.1-1.2,0.4-1.8,1.7-1.8
		c8.1-0.1,16-1.2,24.1-1.9c0.2,0.2,0.4,0.2,0.6,0.2c0.3,0.2,0.5,0.3,0.8,0.5l0.1,0.1c0.1,0.8,0.2,1.7,0.3,2.5
		c-0.5,2.1-1.1,4.2-1.6,6.4c-1.3,5.7-2.8,11.5-3.7,17.3c-0.8,4.7-1.7,9.5-2.8,14.1c-2.8,11.7-5.2,23.4-7.9,35.1
		c-1.9,8.2-3.3,16.5-5.6,24.6c-0.3,1.2-0.8,2.4-0.1,4c1.8-1.7,3.1-3.3,4.1-5.3c3.7-3.6,6.8-7.7,9.6-12c0.9-0.6,1.4-1.6,2-2.4
		c2.2-2.2,3.8-4.8,5.6-7.2c7.1-9.5,14.4-18.9,20.2-29.4c5.8-10.5,11.2-21.3,14.3-33c1.4-5.3,3.4-10.6,3.1-16.3
		c-0.1-2.5,0.4-2.9,3.2-3c7.4-0.2,14.8-1,22.2-1.6c0.7,0,1.3-0.2,2-0.2c2,0,2.6,0.7,2.3,2.6c-0.1,0.5-0.2,1.1-0.4,1.6
		c-3.1,10.4-5.5,20.9-7.8,31.4c-1.8,8.1-3.3,16.3-4.6,24.4c-1.1,6.7-1.9,13.4-1.1,20.2c0.3,2.4,0.8,4.7,2.4,6.7
		c1.7,2.6,3.6,5,7.2,4.2c1.6,0.4,3-0.1,4.3-0.9c3.9-2.4,7-5.5,9.6-9.3c5.5-8.2,10.1-16.9,13.7-26.1c7-17.8,13.1-35.9,16.8-54.7
		c0.1-0.5,0.2-1.1,0.3-1.6c0.7-2.4,1.5-3.1,4-2.9c1.7,0.1,3.3,0,4.9-0.1c5.3-0.4,10.7-0.9,16-1.3c2.6-0.2,3.4,0.9,2.7,3.4
		c-0.3,1.3-0.9,2.5-1.2,3.7c-2.3,9.3-4.8,18.6-6.7,28c-1.4,7.1-2.9,14.1-4,21.2c-0.9,5.4-1.5,10.8-2.1,16.2c-0.6,5-0.8,10-0.2,15
		c0.3,3.2,1,6.5,3.9,8.7c1.6,2,3.5,1.5,5.4,0.5c2-0.5,3.6-1.6,5-2.9c3.8-3.5,7.1-7.4,10.2-11.5c4-5.5,7.1-11.5,10.4-17.4
		c4.2-7.5,8.1-15.2,11.4-23.2c5.8-14.2,14.7-26.3,25.7-36.8c7.9-7.5,17.3-12.8,27.9-15.9c3.4-1,6.8-1.6,10.3-1.6
		c4.3,0,6.3,1.9,7,6.1c-0.2,0.1-0.3,0.3-0.1,0.6c-0.1,0.3-0.3,0.6-0.4,0.9c-1.9,1.9-4.1,2.2-6.6,1.4c-1.6-0.6-3-0.3-4.5,0.3
		c-3.7,1.5-7,3.6-9.9,6.3c-13.3,12.4-23.2,27-27.7,44.8c-2.3,8.9-4,17.9-1.7,27.2c0.6,2.5,1.5,4.8,3.2,6.7c1.5,2.2,3.2,3.8,6.1,3.7
		c1.6,0.3,3.4,0.4,4.8-0.5c2.6-1.5,5.2-3.1,7.3-5.4c6.9-7.4,11.3-16.2,15.8-25.1c2.8-5.7,4.8-11.7,6.9-17.7
		c3.8-10.8,7.9-21.5,10.8-32.6c1-3.1,3.1-5.9,2.1-9.4c0-0.7,0-1.3,0-2c0-2.9,0.1-3,2.9-3c3.6,0,7.2-0.2,10.8-0.6
		c3.7-0.4,7.4-0.5,11.1-1.1c2.4-0.4,3.3,0.5,3.1,2.9c0,0.4-0.1,0.9-0.2,1.3c-2,6.5-2.4,13.3-4.5,19.8c-1.4,4.4-1.4,9.1-2.5,13.5
		c-3.1,13.2-5.6,26.5-7.3,40c-0.5,4.3-0.7,8.5-0.1,12.8c0.4,2.9,1.1,5.8,4.1,7.3c1.8,1,3.3,0.2,4.8-0.6c1.6-0.3,2.7-1.3,3.9-2.3
		c4.4-3.8,8.2-8.2,11.6-12.9c8.4-11.5,15.5-23.9,21.9-36.5c7-13.6,14.4-27,23.7-39.2c3.7-4.9,7.7-9.5,12.9-13
		c6.1-4.1,12.5-4.9,19.3-2.1c2.4,1,2.9,1.8,2.7,3.8c-0.5,5.1,2,13.9,5.3,18.8l0,0c-0.1,1.7,0.4,3.1,1.7,4.2c0.2,0.4,0.5,0.8,0.7,1.2
		c0,1.5,0.4,2.9,1.7,3.9c0.5,1,1,2.1,1.5,3.1c-0.2,1-0.1,1.8,0.9,2.3l0-0.1c-0.4,1.2,0.1,2.1,1,2.9c0.5,0.8,1,1.7,1.5,2.5
		c-0.3,1.2-0.2,2.2,1,2.9l0,0c-0.3,1,0,1.7,0.8,2.3c1.6,3.3,2.7,6.8,3.6,10.5c1.9-0.9,3.8-1.4,4.8-3.2c3.5-1.8,6.9-3.6,9.7-6.4
		c1.2-0.6,2.5-1,3.4-1.9c6-5.1,12.3-10,17.2-16.4c5.1-6.6,7.5-14.2,8.2-22.3c1.6-4.2,2.2-8.7,3.2-13c2.4-10.4,4.6-20.9,6.8-31.4
		c3.7-17.6,7.3-35.3,11-53c0.5-2.6,1.1-5.1,1.6-7.7c0.5-2.3,0.7-4.5,0-6.8c-0.5-1.5,0-2.1,1.8-2.2c5.6-0.5,11.1-0.9,16.7-1.3
		c2.6-0.2,5.2-0.5,7.8-0.6c2.6,0,3.4,1,2.7,3.5c-3.4,12.4-5.5,25.2-8.2,37.7c-2.7,12.3-5.5,24.5-8.1,36.8
		c-1.9,8.9-3.6,17.7-5.3,26.6c-1.5,7.7-2.6,15.5-5.2,23c-1.2,3.2-1.8,6.7-2.2,10.3c2-1.1,5.1-6.2,6.6-10.5c3.8-5,6.5-10.6,10-15.7
		c3.5-3.2,6.5-6.8,10.3-9.6c7-5.2,14.6-8.8,23.6-8.1c7.5,0.6,13.9,3.6,18.6,9.7c0.5,0.6,1,1.1,1.5,1.7c0.9,2.2,2.5,4,2.5,6.5
		c0.5,2.5,1,4.9,1.4,7.4c0.3,1.8,0.5,3.7,0.3,5.5c-0.8,9.3-3.3,18.2-5.7,27.1c-2.4,8.8-5.1,17.6-7.2,26.5
		c-1.2,5.1-1.7,10.3-1.5,15.6c0.2,3.2,1,6,3.9,7.8c1.5,1.3,2.9,2.6,5.1,2.4c5.2,0.8,9.9-0.7,14.7-2.4c13.6-5,22.9-14.6,30.2-26.8
		c5-8.4,7.5-17.5,7.7-27.1c0.2-7.2-1.1-14.4-3.9-21.1c-1.1-2.7-2.9-4.8-5.1-6.7c-0.6-0.5-1.2-1-1.8-1.4c-3.5-2.8-3.4-5.6,0.1-8.6
		c2.8-2.3,7.9-3.6,11.9-0.8c2,1.4,3.7,3,5.1,5c0.6,0.9,1,2,1.9,2.6c-0.1,1.4,1.1,2.1,1.5,3.2c0.4,1.9,0.6,3.9,1.1,5.8
		c2.2,8,2.8,16,1.5,24.3c-0.5,2.9-1.4,5.7-1.8,8.6c-1.5,9.6-5.7,18.1-10.7,26.2c-6.9,11.2-16.6,19.6-27.9,26.2
		c-7.8,4.5-16.4,6.4-25.2,7.7c-4.6,0.7-9.1,0.7-13.7-0.4c-0.6-0.2-1.3-0.2-1.9-0.2c-2.1-0.8-4.2-1.6-6.3-2.4
		c-1.4-0.9-2.8-1.7-4.1-2.6c-5.5-3.7-9.4-8.7-11.1-15.2c-2-7.4-1.6-14.9-0.6-22.4c1.9-14.1,6.2-27.6,9.6-41.4
		c0.9-3.5,1.9-7,1.6-10.6c0-0.2,0-0.5-0.1-0.7c0.4-0.4,0.3-0.9,0.2-1.4c0.3-0.7,0.3-1.3-0.2-1.9c0-0.5-0.2-1-0.7-1.3
		c-0.1-0.7-0.7-0.8-1.2-1c-2.1-1.9-4.5-1.9-7-1c-3.7,1.5-6.7,4-9.5,6.8c-5.4,5.4-9.2,11.8-12.5,18.6c-5,10.2-9.5,20.6-13.5,31.2
		c-4.7,12.3-8.5,25-12.3,37.6c-0.7,2.3-1.4,4.6-0.7,7.1c0.5,1.7-0.4,2.5-1.9,2.8c-0.9,0.2-1.7,0.2-2.6,0.3c-4.7,0.3-9.4,0.6-14,1
		c-2.4,0.2-4.8,0.1-7.1,1.1c-0.6-0.1-1.3-0.2-1.9-0.3c-1.9-0.5-2.3-1.2-1.8-3.1c1.4-5.6,2.5-11.2,3.9-16.8c1.8-6.7,3-13.6,4.5-20.4
		c1.4-6.6,3.1-13.1,4.6-19.7c0.3-1.4,0.9-2.7,0.8-4.1c0.1-2.3,1.7-4.2,1.3-6.7c-1.3,0-2.1,0.7-2.8,1.5c-3,3-6.4,5.6-9.8,8.2
		c-6.1,4.6-12.3,9.1-19,12.7c-2.1,1.1-2.9,2.7-2.6,5.1c0.6,4.3,0.1,8.5-0.6,12.7c-1.6,9.6-5.5,18.2-12.6,25
		c-12.2,11.7-26.6,17.2-43.5,15.5c-1.8-0.6-3.5-1.2-5.3-1.7c-0.6-0.4-1.3-0.9-1.9-1.2c-4.8-2.3-8.2-6-10.9-10.5
		c-1.8-3-2.5-6.3-3.8-9.4c0-0.3,0-0.7,0-1c-0.5-5.5-0.5-5.5,4.2-8c0.3-0.2,0.6-0.3,0.8-0.5c0.9,0.1,1.7-0.2,2.5-0.6
		c7.1-3,14.4-5.8,21.4-8.9c7.1-3.1,14.1-6.5,21-9.8c2.8-1.3,2.9-1.8,2.2-4.9c-0.2-0.8-0.4-1.7-0.7-2.5c-2.8-9.2-6.2-18.1-10.1-26.9
		c-1.1-2.4-1.6-5-3.2-7.1c-0.5-2.6-1.1-5.2-2.3-7.7c0-0.4,0.1-0.9,0.1-1.3c-0.5-2.7-1.3-3-3.4-1.4c-1.3,1-2.4,2.1-3.4,3.5
		c-4.6,6.2-8.1,12.9-11.7,19.7c-7.9,15.3-15.3,30.9-24.2,45.7c-6.9,11.4-14.6,22-24.7,30.9c-6.6,5.8-13.9,9.8-22.8,10.7
		c-1.3,0.1-2.6,0.2-3.8,1c-0.2,0-0.3,0-0.5,0.1c-0.8-1-2.1-0.6-3-1.2c-0.7-0.4-1.3-0.8-2-1c-3.8-1.3-6.4-3.9-8.4-7.4
		c-1.1-1.9-1.3-4.1-2.6-5.9c-0.2-3.8-1.3-7.5-1.9-11.3c0.2-2.8,0.6-5.5,0.1-8.6c-2,1-2.7,2.6-3.4,4.1c-2,4.4-4.2,8.7-7.1,12.5
		c-5.2,7-11,13.3-18.3,18.2c-5.9,3.9-12.3,5.5-19.3,5.1c-1.8-0.6-3.6-1.3-5.4-1.9c-0.3-0.2-0.5-0.5-0.8-0.6
		c-5.4-2.8-9.4-6.9-11.8-12.6c-0.3-0.7-0.9-1.2-1.4-1.8c-0.8-3.5-1.6-7-2.4-10.5c0.1-2,0.4-4-0.5-6.2c-1.9,1.4-2.9,3-3.7,4.8
		c-1,2.3-2.4,4.4-3.7,6.5c-3.7,6-8.6,11-13.6,15.9c-7.5,7.3-16,12.9-27,12.8c-0.4-0.1-0.7-0.1-1.1-0.2c-0.7-0.3-1.4-0.7-2-1
		c-4.2-1.9-7.7-4.4-9.9-8.7c-1-1.9-1.6-4.1-3.2-5.6c0.3-1.1,0.1-2.1-0.1-3.2c-0.5-2.8-1-5.7-1.5-8.5c-0.2-3.2,0.5-6.4-0.8-10.1
		c-1.3,2.5-2.5,4.3-3.3,6.4c-2.7,7.3-6.4,14.1-11.1,20.3c-4.9,6.3-10.6,11.6-18.4,14.2c-4.1,1.4-8.3,1.6-12.6,1.9
		c-2.6-0.9-5.1-1.7-7.7-2.6c-0.2-0.1-0.3-0.3-0.5-0.4c-9.2-5.6-13.9-14-15.1-24.5c-0.1-0.9-0.4-1.7-0.8-2.4c0-4.3,0.1-8.5,0.1-12.8
		c0.3-3.6,1.8-7.1,1.5-11.4c-1.8,1.6-2.9,3.1-3.8,4.9c-2.6,5.5-6.1,10.3-9.6,15.3c-5.8,8.2-11.2,16.7-17.2,24.8
		c-6.7,9.2-12.7,18.9-18.2,28.9c-2.6,4.8-5.2,9.6-7.1,14.7c-0.1,0.1-0.1,0.3,0,0.5c-1.3,1.5-1.4,3.4-1.8,5.2
		c-1.8,8.1-3.7,16.1-5.2,24.3c-0.8,4.4-2.6,8.6-2.6,13.1c-0.3,0.7-0.1,1.3,0.3,1.9c0.1,1.1,0.7,1.9,1.4,2.7
		C379.1,704.7,379,705.6,378.9,706.6z M195.7,630.7l0.2,0.1c1.1,0.8,2.3,1.1,3.6,1.3c5.9,0.7,11.6,0.3,17.2-1.7l0,0
		c1.5,0,2.7-0.8,3.9-1.6c9.7-3.4,17.6-9.4,24.5-16.8c5-5.4,8.9-11.4,11.4-18.3c1.3-2.4,1.8-5.1,2.3-7.7c0.1-0.5,0.2-1.1,0.2-1.6
		c0.1-2.1-0.2-2.5-2.1-1.9c-2.5,0.8-5.1,1.5-7.4,2.6c-9.1,4.5-18.8,7.5-28.1,11.4c-7.6,3.2-15.5,5.8-23.3,8.5
		c-6.2,2.1-12.4,4-18.5,6.4c-3.3,1.3-3.3,1.4-1.3,4.2c0.3,0.4,0.7,0.8,1.1,1.2c0.7,1,1.4,1.9,2,2.9c1.8,2.9,4,5.3,6.9,7.2
		c0.3,0.8,1,1.1,1.7,1.4c0.5,0.4,1.1,0.8,1.8,0.9C192.9,630.1,194.3,630.3,195.7,630.7z M769.8,571.3c0.7,0,0.9-0.4,1-1
		c2.7-2.9,4.9-6,5.2-10.1c0.7-0.6,1-1.4,1.1-2.3c0.3-2.1-0.4-2.7-2.3-2c-1,0.4-2,1-2.9,1.5c-5.3,3.3-10.9,6-16.5,8.6
		c-5.3,2.4-10.5,4.8-15.8,7.3c-2.2,1-2.2,1.5-0.6,3.3c0.3,0.3,0.7,0.5,1,0.8c1.6,2,3.4,3.6,6.2,3.8c0.3,0.2,0.5,0.4,0.8,0.5
		C756.1,584,764.8,579.7,769.8,571.3L769.8,571.3z"/>
	<path class="st0" d="M190.2,646.4c0.6-0.1,1.1,0.1,1.5,0.5c0.6,0.7,1.5,1,2.4,1c0.2,0,0.3,0.1,0.5,0.2c0.4,0.5,0.9,0.6,1.4,0.4
		c0.4,0.1,0.8,0.2,1.2,0.2c0.2,0.3,0.4,0.4,0.8,0.3c10.4,2.5,20.8,1.8,31-1c3.5-1,7.3-1.5,10.4-3.7c0.3-0.1,0.7-0.2,1-0.3
		c1.6-0.5,3-1.3,4.4-2.2c0.9-0.1,1.5-0.5,2-1.2c3.1-1.3,5.9-3,8.1-5.6c0.2,0,0.3,0,0.5-0.2c4.5-2.7,8.4-5.9,11.5-10.2l0.1-0.1
		c1.7-1.4,3.5-2.6,4.2-4.8l0-0.1c2-1.4,3.3-3.3,4.1-5.6l0-0.1c0.6-0.3,1-0.7,1.1-1.4l0.1-0.1c1.9-2.2,3.3-4.7,4.3-7.4
		c0.3-0.1,0.4-0.3,0.4-0.7c1.9-2.7,3-5.8,3.8-9c0.5-0.4,0.6-0.9,0.5-1.4c0.7-1,1.2-2.1,1.4-3.3c1.2-5.2,2.7-10.4,2.8-15.8
		c0.1-3.3,1.6-5,4.5-6.4c4.8-2.3,9.8-4.3,13.9-8c1.4-1.3,3.2-1.9,5.1-1.9c-1.3,3.4-2.4,6.8-4.2,10c-4.1,1.5-7.8,3.8-11.7,5.9
		c-1.3,0.7-2.1,1.9-2.1,3.5c-0.1,7.7-1.8,15.1-4.5,22.3c-2.2,5.9-4.8,11.7-8.4,17c-9.1,13.2-20.4,23.9-35.1,30.6
		c-7.3,3.3-14.8,5.6-22.7,6.9c-9.7,1.5-19.1,0.9-28.3-2.3c-0.3-0.5-0.8-0.7-1.4-0.5c-0.2,0-0.4,0-0.6-0.1c-0.2-0.3-0.4-0.4-0.7-0.4
		c0,0,0,0,0,0c-0.2-0.3-0.4-0.5-0.8-0.5c-0.2,0-0.3-0.1-0.5-0.2c-0.5-1.8-2.5-2.4-3.1-4.2l0,0C189.5,646.5,189.8,646.5,190.2,646.4z
		"/>
	<path class="st0" d="M998.3,484.8c-0.4-1.1-1.7-1.8-1.5-3.2c0.1-0.6,0.4-0.9,1.1-0.8c2,0.3,3.3,1.7,4.4,3.1
		c2.6,3.2,4.2,6.9,5.2,10.9c1.8,7.4,2.7,14.9,2.4,22.4c-0.4,9-2.6,17.5-6.3,25.6c-2.1,4.7-3.9,9.5-6.8,13.8
		c-7.2,10.5-15.9,19.5-27.1,25.7c-7.8,4.3-15.9,7.5-25,8.1c-6,0.4-12,1-17.9-0.9c-4.4-1.4-8.8-2.8-12-6.3c-0.7-0.8-1.7-1.4-1.4-2.7
		c2.1,0.8,4.2,1.6,6.3,2.4c0.5,0.3,0.9,0.6,1.4,0.8c5.7,2,11.5,2.6,17.4,2.1c15-1.4,28-7.2,38.9-17.6c7.7-7.4,14.5-15.4,18.9-25.3
		c3.5-7.8,5.7-16,7.5-24.3c1.7-8.1,1.1-16.1-1-24C1001.7,491.2,1000.7,487.6,998.3,484.8z"/>
	<path class="st0" d="M883.2,476.5c-3.6,5.1-6.2,10.8-10,15.7c-0.7-6.3,2.1-12,3.2-17.9c3-16.8,7-33.3,10.6-50
		c3.3-15.2,6.6-30.3,9.8-45.5c0.3-1.6,0.6-3.2,0.9-4.8c0.5-2.1,1.7-2.9,3.8-2.7c2.1,0.3,3.1,1.3,2.6,3.6c-0.7,3.6-1.5,7.3-2.3,10.9
		c-0.8,3.7-1.7,7.5-2.4,11.2c-1.9,9.6-4.2,19.2-6.2,28.8c-1.8,9.1-3.7,18.2-6,27.2c-1.5,6-2.6,12.1-3.8,18.2
		C883.2,473,883.3,474.8,883.2,476.5z"/>
	<path class="st0" d="M936.1,568.9c-2.2,0.3-3.6-1.1-5.1-2.4c-0.7-1.8-1.3-3.8-1.2-5.7c0.3-6.4,1.1-12.8,2.6-19.1
		c3.5-14.4,8.6-28.4,11.2-43c1.3-7.2,1.3-14.3-2.4-21c-0.3-0.6-0.7-1.1-1.4-1.1c0-2.5-1.7-4.4-2.5-6.5c2.8,0.4,4.9,1.9,6.4,4.1
		c2,3,3.5,6.1,4.8,9.6c2.5,7,1.9,14.1,0.7,21c-1.4,7.8-3.5,15.5-5.9,23.1c-2.6,8.2-4.9,16.5-6.4,25
		C935.8,558.3,935.3,563.6,936.1,568.9z"/>
	<path class="st0" d="M312.5,438.7c-1-0.9-1.8-2-1.9-3.5c0.5-0.9,1.2-0.9,1.8-0.1c0.6,0.8,1.3,1.1,2.2,1c0.4,0.5,0.8,1,1.2,1.5
		c-0.1,0.6,0.2,0.9,0.8,1c3.2,4.1,5.2,8.7,5.5,14c0.1,1.4-0.1,2.6-0.9,3.7c-1.7,2.4-4,4.3-6.6,5.7c-1.6,0.8-3.9,0.3-5.1-1
		c-1.3-1.3-1.2-2.6,0.5-3.7c2.3-1.4,4.1-3.2,5.4-5.6c1.2-2.3,1.8-4.7,0.1-7.1c-0.4-0.6-0.5-1.4-0.8-2.1
		C314.3,441.2,314,439.6,312.5,438.7z"/>
	<path class="st2" d="M314.7,436.2c-1,0.1-1.6-0.3-2.2-1c-0.6-0.7-1.3-0.8-1.8,0.1c-1.5-1.4-2.1-3.4-3.4-4.9
		C310.2,431.7,312.8,433.4,314.7,436.2z"/>
	<path class="st2" d="M312.5,438.7c1.5,0.9,1.8,2.5,2.2,3.9c-0.5-0.1-1-0.1-1.1,0.6c0.7-0.6,0.1-1.1-0.1-1.6
		C313.3,440.6,312.6,439.8,312.5,438.7z"/>
	<path class="st2" d="M316.7,438.7c-0.6-0.1-0.9-0.4-0.8-1C316.3,437.8,316.6,438.2,316.7,438.7z"/>
	<path class="st2" d="M314,447.4C314,447.4,314,447.4,314,447.4C314,447.4,314,447.4,314,447.4z"/>
	<path class="st0" d="M751.8,520.2c-0.1,0.5-0.3,0.9-0.7,1.2c-0.4,0.2-0.5,0.5-0.5,0.9c-3.1,7-6.8,13.6-10.4,20.4
		c-3.8,7.3-7.8,14.6-11.4,22.1c-0.3,0.2-0.5,0.4-0.8,0.5c-4.8,2.6-4.8,2.6-4.2,8c0,0.3,0,0.7,0,1c-2.1,1.2-3,3.4-4.4,5.2
		c-6,8.2-12.4,16-20.3,22.6c-6.7,5.5-14.1,9-22.8,9.4c-3.8,0.2-7.4-0.2-10.6-2.4c-0.1-0.5-0.3-1-1-0.8c0,0-0.2-0.1-0.2-0.1
		c0.4-1,0.3-2.1,1-2.9c0.2,0,0.3-0.1,0.5-0.1c1.3,0.8,2.8,1.2,4.3,1.3c7.1,0.5,13.4-2,19.1-5.8c8-5.4,14.2-12.9,20.3-20.3
		c2.3-2.8,4.5-5.6,6.4-8.7c4.2-6.9,8.4-13.7,12-21c4.2-8.4,8.9-16.5,12.9-25.1c0.3-0.1,0.4-0.3,0.3-0.6c0.1-0.2,0.2-0.5,0.3-0.7
		c0.7-0.5,1.1-1.1,1.1-2l0-0.1c0.6-0.2,0.7-0.7,0.6-1.2l0-0.1c0.5-0.3,0.6-0.7,0.6-1.3l0,0c0.3-0.1,0.5-0.4,0.5-0.8
		c0.1-0.1,0.2-0.2,0.2-0.4c0.6-0.4,1-0.9,1-1.7l0-0.1c0.4-0.3,0.7-0.7,0.6-1.2l0,0c0.4-0.1,0.5-0.4,0.5-0.8c0.1-0.1,0.2-0.2,0.2-0.4
		c0.7-0.4,0.9-0.9,0.9-1.7c0.1-0.1,0.2-0.3,0.2-0.5c0.3-0.2,0.5-0.5,0.5-0.9c0.5-0.6,1-1.2,1.1-2.1c0.5-0.3,0.6-0.7,0.6-1.3l0,0
		c0.7-0.2,0.9-0.8,1-1.5l0.1-0.1c0.6-0.2,0.7-0.7,0.7-1.2l0,0c0.6-0.3,0.8-0.9,1-1.5l0.1-0.1c1-0.6,1.7-1.4,1.8-2.6l0,0
		c0.4-0.1,0.5-0.3,0.6-0.7c0.8-2.1,2.5-3,4.5-3.7c1.1,2.4,1.8,5,2.3,7.7c-2.3,2.5-4.2,5.4-6,8.3c-0.3,0.1-0.4,0.4-0.4,0.7
		c-0.1,0.2-0.2,0.4-0.3,0.7c-0.2,0.1-0.3,0.3-0.3,0.5c-0.6,1-1.1,2-1.7,3C751.8,517.8,751.7,518.9,751.8,520.2z"/>
	<path class="st0" d="M660.6,497.8c-2.9-1.3-5.8-0.8-8.5,0.5c-4.9,2.3-8.8,5.9-12.7,9.7c-11.3,11.2-18.9,24.8-23.5,39.9
		c-2.9,9.5-4.1,19.2-1.3,29c0.2,0.7,0.2,1.5,0.3,2.3c-2.8,0.1-4.6-1.6-6.1-3.7c-1.2-3.4-1.1-6.8-1.2-10.3
		c-0.2-12.1,2.2-23.6,7.3-34.6c4.3-9.3,9.9-17.7,16.9-25.2c4-4.3,8.3-8.5,13.4-11.4c2.9-1.6,6-3.1,9.6-1.4c1.1,0.5,2.5,0.5,2.7-1.3
		c0,0,0,0,0,0c0.4-0.1,0.5-0.3,0.6-0.7c1.1-1.6,2.8-1.9,4.5-2.1C663.6,491.9,661.6,494.7,660.6,497.8z"/>
	<path class="st0" d="M543.2,590c-1.8-9.9-1.1-19.8,0.3-29.7c2.4-16.2,5.4-32.3,9.6-48.2c0.8-3,1.5-5.9,2.2-8.9
		c0.2-0.9,0.6-1.6,1.2-2.3c1.1-1.2,2.5-1.4,3.9-0.8c1.5,0.6,2,1.9,1.8,3.5c-0.1,1-0.4,1.9-0.7,2.9c-2.6,9.7-5,19.5-7.1,29.3
		c-1.7,7.7-2.8,15.5-4.3,23.2c-1.7,8.6-2,17.3-2.1,26.1c0,1.9,1,3.6,0.6,5.5C546.7,591.6,544.8,592,543.2,590z"/>
	<path class="st0" d="M401.1,604.4c0.1-0.2,0.1-0.4,0.2-0.6c3.1-15.4,6.8-30.6,10.2-45.9c1.6-7.4,2.8-14.8,4.3-22.2
		c0.9-4.3,2.1-8.5,3-12.8c0.6-3,1.2-6,2.1-8.9c0.8-2.4,1.5-2.9,3.8-2.2c2.6,0.7,3.2,1.6,2.5,4c-2.6,9.9-4.4,20-6.8,30
		c-2.3,9.7-3.9,19.5-6.1,29.1c-0.9,4-1.7,8.1-2.7,12.1c-0.2,1-0.2,1.9,0,2.9c-0.7,0.7-1,1.5-1,2.5
		C407.8,596.7,404.7,600.8,401.1,604.4z"/>
	<path class="st0" d="M680.2,579.3c-1.6-4.5-1.6-9.2-1.3-13.9c0.7-10.9,2.8-21.6,5-32.3c1-4.9,1.5-9.9,2.6-14.8
		c2-8.6,3.7-17.3,5.5-25.9c0.1-0.5,0.3-1.1,0.5-1.6c0.9-2.3,2-2.9,3.9-2.5c2.1,0.5,3,1.9,2.5,4.2c-0.8,4.3-1.7,8.6-2.7,12.8
		c-1.2,5.1-2.3,10.2-3.4,15.3c-1.2,5.7-2.3,11.3-3.6,17c-1.4,6.1-1.7,12.3-3.1,18.4c-1.3,5.7-1.1,11.5-1.8,17.2
		c-0.2,1.9,1.3,3.6,0.6,5.5C683.5,579.6,681.9,580.4,680.2,579.3z"/>
	<path class="st0" d="M474.1,586.4c-0.6-13.2,2-26.1,4.3-38.9c2.3-12.8,5.5-25.4,8.7-38c0.1-0.5,0.2-1.1,0.5-1.6
		c0.8-1.7,2.8-2.5,4.4-2c1.4,0.5,2.3,2.1,1.8,4.1c-0.8,3.3-2,6.5-2.7,9.8c-1.5,7.4-3.2,14.7-4.8,22.1c-1.5,7-3,14.1-4.1,21.2
		c-1.5,9.1-3.3,18.3-0.8,27.6C477.7,591.4,475.8,589,474.1,586.4z"/>
	<path class="st3" d="M904.6,483c-7.1,2.2-11.9,7.3-16.4,12.9c-5.5,6.9-8.9,15-12.4,23c-2.4,5.4-4.8,10.8-7,16.3
		c-1.9,4.8-3.6,9.6-5.2,14.5c-2.5,7.6-5.1,15.1-7.3,22.8c-1.2,4.2-2.9,8.3-2.4,12.8c0.2,1.7-0.6,2.4-2.2,2.6
		c-7.4,0.9-14.7,1.9-22.1,2.4c-2,0.1-3.2-1.1-4.2-2.6c2.3-1,4.7-0.8,7.1-1.1c4.7-0.5,9.4-0.7,14-1c0.9-0.1,1.8-0.1,2.6-0.3
		c1.5-0.3,2.3-1,1.9-2.8c-0.6-2.4,0-4.8,0.7-7.1c3.8-12.6,7.6-25.3,12.3-37.6c4-10.6,8.5-21,13.5-31.2c3.4-6.8,7.1-13.3,12.5-18.6
		c2.8-2.8,5.8-5.3,9.5-6.8c2.5-1,4.9-1,7,1C906,482.4,905.3,482.7,904.6,483z"/>
	<path class="st3" d="M747.8,512c0,0.2-0.1,0.3-0.2,0.5c-0.7,0.4-1,0.9-0.9,1.7c0,0.2,0,0.3-0.2,0.4c-0.3,0.2-0.5,0.4-0.5,0.8
		c0,0,0,0,0,0c-0.7,0.2-0.7,0.6-0.6,1.2c0,0,0,0.1,0,0.1c-0.7,0.3-1.1,0.8-1,1.7c0,0.2,0,0.3-0.2,0.4c-0.3,0.1-0.5,0.4-0.5,0.8
		c0,0,0,0,0,0c-0.6,0.3-0.7,0.7-0.6,1.3c0,0,0,0.1,0,0.1c-0.5,0.3-0.7,0.7-0.6,1.2c0,0,0,0.1,0,0.1c-1.2,0.2-1.2,1.1-1.1,2
		c-0.1,0.2-0.2,0.5-0.3,0.7c-0.1,0.2-0.2,0.4-0.3,0.6c-3.9,8.5-8.7,16.6-12.9,25.1c-3.6,7.3-7.9,14.1-12,21
		c-1.9,3.1-4.1,5.9-6.4,8.7c-6.1,7.5-12.2,14.9-20.3,20.3c-5.7,3.9-12,6.3-19.1,5.8c-1.5-0.1-3-0.4-4.3-1.3c1.1-0.8,2.5-0.8,3.8-1
		c8.8-0.9,16.2-4.9,22.8-10.7c10-8.9,17.8-19.5,24.7-30.9c8.9-14.8,16.3-30.4,24.2-45.7c3.5-6.8,7.1-13.6,11.7-19.7
		c1-1.3,2.1-2.5,3.4-3.5c2.1-1.6,2.9-1.2,3.4,1.4c0.1,0.4,0,0.9-0.1,1.3c-1.9,0.7-3.7,1.6-4.5,3.7c-0.4,0.1-0.6,0.3-0.6,0.7
		c0,0,0,0,0,0c-1.2,0.5-1.8,1.3-1.8,2.6c0,0-0.1,0.1-0.1,0.1c-0.9,0.1-1.2,0.6-1,1.5c0,0,0,0,0,0c-0.6,0.2-0.7,0.6-0.7,1.2
		c0,0-0.1,0.1-0.1,0.1c-0.9,0.1-1.2,0.6-1,1.5c0,0,0,0,0,0c-0.7,0.2-0.7,0.7-0.6,1.3c-0.1,0.8-0.6,1.4-1.1,2.1
		C748,511.3,747.8,511.6,747.8,512z"/>
	<path class="st3" d="M835.5,523.1c-2.5,0.6-4.4,2-6.3,3.8c-3,3-6.5,5.4-10.1,7.7c-4.1,2.6-8.1,5.1-12.2,7.7c-1.9,1.2-2.3,2.8-2,5
		c1.4,10.8-0.7,20.9-7,29.9c-9,13-21.4,20.3-37.1,22.1c-5.1,0.6-10.3,0.4-15-2.3c16.9,1.6,31.4-3.9,43.5-15.5
		c7.1-6.8,11-15.4,12.6-25c0.7-4.2,1.2-8.4,0.6-12.7c-0.3-2.4,0.5-3.9,2.6-5.1c6.7-3.6,12.9-8.1,19-12.7c3.4-2.5,6.8-5.2,9.8-8.2
		c0.8-0.8,1.5-1.5,2.8-1.5C837.1,518.9,835.6,520.9,835.5,523.1z"/>
	<path class="st3" d="M998.3,484.8c2.4,2.8,3.4,6.4,4.3,9.8c2.2,7.9,2.8,15.8,1,24c-1.8,8.4-4.1,16.5-7.5,24.3
		c-4.4,9.9-11.2,17.9-18.9,25.3c-10.9,10.4-23.9,16.2-38.9,17.6c-5.9,0.5-11.8-0.1-17.4-2.1c-0.5-0.2-0.9-0.5-1.4-0.8
		c0.6,0.1,1.3,0.1,1.9,0.2c4.5,1.1,9.1,1.1,13.7,0.4c8.8-1.3,17.5-3.2,25.2-7.7c11.3-6.5,21-15,27.9-26.2c5-8.1,9.2-16.6,10.7-26.2
		c0.5-2.9,1.4-5.7,1.8-8.6c1.3-8.2,0.7-16.3-1.5-24.3C998.9,488.7,998.7,486.7,998.3,484.8z"/>
	<path class="st0" d="M580.4,592.9c-1.8,1.3-3.1,3-4.4,4.8c-5,7.1-10.6,13.5-17.6,18.7c-5.2,3.8-10.9,6.2-17.4,6.7
		c-3.9,0.3-7.3-0.7-10.5-2.8c-1.5-0.9-2.7-2.3-2-4.3c0.4,0.1,0.7,0.1,1.1,0.2c4.1,1.8,8.2,2.5,12.6,1.1c4.9-1.5,9.2-4.1,12.9-7.4
		c6.8-6,12.9-12.7,17.9-20.2c1.6-2.4,2.5-5.3,4.9-7.2C578.8,585.9,579.6,589.4,580.4,592.9z"/>
	<path class="st0" d="M649.5,589.8c-2.1,0.4-2.9,2.2-3.9,3.7c-4.1,6.3-9.1,11.7-14.9,16.4c-6.9,5.6-14.8,7.8-23.5,6.8
		c-3.2-0.4-6.3-1.7-8.8-4c-0.2-1.2-0.4-2.4,1.4-2.5c7.2,3,13.9,2.1,20.6-1.8c4.2-2.5,7.7-5.7,11.1-9c4.6-4.6,8.7-9.7,11.7-15.6
		c1.1-2.2,2.2-4.2,4.5-5.3C648.2,582.3,649.3,586,649.5,589.8z"/>
	<path class="st0" d="M513.3,600.7c-2.5,2.2-3.9,5.3-5.7,8c-4.9,7.3-10.5,13.7-18.6,17.5c-0.1,0-0.2,0.1-0.3,0.2
		c-8.6,2.5-17.1,3.6-25.3-1.4c-0.4-1.8,0.4-2.6,2.2-2.6c1.2,0.8,2.5,0.4,3.8,0.7c7.7,1.6,14.5-0.6,20.4-5.4
		c7.6-6.1,13.1-13.9,17.2-22.7c0.7-1.5,1.7-2.8,2.9-3.9c0.7-0.6,1.4-1.1,1.7-1.9c0.5,2.8,1,5.7,1.5,8.5
		C513.4,598.6,513.7,599.6,513.3,600.7z"/>
	<path class="st3" d="M441.6,578.9c-2.2,1.1-3.5,2.8-4.7,5.1c-2,3.8-4.7,7.3-7.2,10.9c-9.7,13.7-19.5,27.3-28.1,41.8
		c-3.4,5.8-6.8,11.7-9.6,17.8c-0.4,0.8-0.7,1.6-1.5,2.1c-0.9-1-2.1-0.5-3.2-0.4c1.9-5.1,4.5-9.9,7.1-14.7
		c5.5-10,11.5-19.7,18.2-28.9c5.9-8.1,11.4-16.6,17.2-24.8c3.4-4.9,7-9.8,9.6-15.3c0.8-1.8,2-3.3,3.8-4.9
		C443.4,571.8,441.9,575.2,441.6,578.9z M393.1,648c0.1-0.2,0.2-0.4,0.1-0.5c-0.1-0.1-0.3-0.1-0.5-0.2c-0.1,0.2-0.2,0.4-0.2,0.5
		C392.6,647.9,392.9,647.9,393.1,648z"/>
	<path class="st3" d="M381.5,515.4c-3.3-0.5-6.3,0.6-8.9,2.4c-5.4,3.7-10.2,8.2-14.6,13c-6.4,7-11.1,15.1-15.3,23.5
		c-2.7,5.3-4.4,10.9-5.6,16.7c-0.7,3.6-1.8,7.2-2.2,10.9c-0.6,5.6-0.7,11.1,0.5,16.6c0.2,0.9,0.1,1.9,0.2,2.9
		c-3.5-3.8-4.2-8.6-4.4-13.4c-0.3-8.1,1.2-16.1,3.7-23.8c2.3-7.1,4.9-14,8.9-20.4c6.4-10.2,13.7-19.8,23.5-27.1
		c1.2-0.9,2.6-1.7,3.9-2.4c2.5-1.4,5-2.1,7.7-0.5c1.2,0.7,2.5,0.5,3.8,0.2C382.3,514.5,381.9,515,381.5,515.4z"/>
	<path class="st3" d="M657.6,491.2c-0.2,1.8-1.6,1.8-2.7,1.3c-3.6-1.7-6.7-0.2-9.6,1.4c-5.2,2.9-9.4,7-13.4,11.4
		c-7,7.5-12.6,15.9-16.9,25.2c-5.1,11-7.5,22.5-7.3,34.6c0.1,3.5,0,7,1.2,10.3c-1.7-1.9-2.6-4.2-3.2-6.7c-2.3-9.3-0.5-18.3,1.7-27.2
		c4.5-17.8,14.4-32.4,27.7-44.8c2.9-2.7,6.2-4.8,9.9-6.3c1.5-0.6,2.9-0.9,4.5-0.3c2.4,0.9,4.7,0.6,6.6-1.4c0,0.3-0.1,0.6-0.1,1
		c-0.1,0.7-1.3,1.2-0.4,2C656.2,492.3,656.9,491.4,657.6,491.2z"/>
	<path class="st3" d="M939.8,476.7c0.8,0,1.1,0.5,1.4,1.1c3.7,6.7,3.7,13.8,2.4,21c-2.6,14.6-7.7,28.6-11.2,43
		c-1.5,6.3-2.3,12.7-2.6,19.1c-0.1,1.9,0.5,3.9,1.2,5.7c-2.9-1.8-3.8-4.7-3.9-7.8c-0.3-5.3,0.3-10.4,1.5-15.6
		c2.1-8.9,4.8-17.7,7.2-26.5c2.5-8.9,4.9-17.9,5.7-27.1c0.2-1.9,0-3.7-0.3-5.5C940.8,481.6,940.2,479.1,939.8,476.7z"/>
	<path class="st1" d="M786.5,495.3c0.4-0.7,0.2-1.3-0.1-1.9c-2-3.4-1.9-7.3-2.6-11.1c-0.2-1-0.6-2.3,0.6-3c1-0.6,2.1,0,3.1,0.4
		c1.6,0.7,2.8,1.9,2.5,3.8c-0.7,5.3,1.3,10.1,3.1,14.8c3.2,8.2,6.9,16.2,10.3,24.3c0.7,1.7,1.4,3.4,2.1,5.1c-1,1.7-2.9,2.2-4.8,3.2
		c-0.9-3.7-2-7.2-3.6-10.5c0.1-0.9,0.2-1.8-0.8-2.3l0,0c0.3-1.2-0.1-2.1-1-2.9c-0.5-0.8-1-1.7-1.5-2.5c0.2-1.2,0.1-2.2-1-2.9l0,0.1
		c0-0.9,0.1-1.8-0.9-2.3c-0.5-1-1-2.1-1.5-3.1c0-1.5-0.4-2.9-1.7-3.9c-0.2-0.4-0.5-0.8-0.7-1.2C788,497.9,787.8,496.4,786.5,495.3
		L786.5,495.3z"/>
	<path class="st0" d="M746.3,581.2c-2.7-0.2-4.6-1.8-6.2-3.8c1.5-1.5,3.5-2.1,5.4-2.9c8.6-3.7,17.1-7.5,25.1-12.4
		c1.7-1,3.4-1.8,5.4-2c-0.3,4.1-2.5,7.2-5.2,10.1c-0.5,0.1-1,0.3-1,1l0,0c-1-0.2-1.9,0.3-2.8,0.7c-5.2,2.5-10.4,5-15.7,7.3
		C749.7,580,748.2,581.2,746.3,581.2z"/>
	<path class="st3" d="M511.7,589c-0.3,0.9-1,1.4-1.7,1.9c-1.2,1.1-2.3,2.4-2.9,3.9c-4,8.9-9.6,16.6-17.2,22.7
		c-5.9,4.8-12.7,7-20.4,5.4c-1.3-0.3-2.6,0.1-3.8-0.7c0-0.2-0.1-0.4-0.1-0.7c4.2-0.3,8.5-0.6,12.6-1.9c7.8-2.6,13.5-7.9,18.4-14.2
		c4.8-6.2,8.5-12.9,11.1-20.3c0.7-2,2-3.8,3.3-6.4C512.2,582.6,511.5,585.9,511.7,589z"/>
	<path class="st4" d="M384.6,520.6c1.6-0.4,2.9,1.1,4.5,0.9c-0.6,3.7-1.8,7.2-3,10.7c-3,9-6.2,17.9-9.2,27c-2,6.3-4.9,12.1-7.8,18
		c-0.1,0.3-0.5,0.4-0.7,0.6c-0.1-1-0.3-1.8-1.6-1.8c-0.1-0.4-0.1-0.8-0.2-1.2c0.8-2.6,2.8-4.9,2.2-7.9c-0.1-0.5,0.2-1.2,0.7-1.4
		c1.3-0.6,1.2-1.7,1.7-2.8c1-2.4,2.6-4.5,2.2-7.2c0-0.3,0.5-0.6,0.8-0.9c0.7-0.7,1.4-1.4,0.8-2.6c-0.4-0.8,0-1.4,0.5-2.1
		c0.6-0.8,1.3-1.7,1.3-2.6c0-1.7,1.3-2.7,1.7-3.9c0.9-2.9,1.4-5.9,2.2-8.8c0.3-1,0.2-1.9,1.1-2.7c1-0.8,2.1-1.6,1.1-3.2
		c-0.4-0.6-0.3-1.4,0.3-1.8C385.2,525.2,385,522.9,384.6,520.6z"/>
	<path class="st3" d="M578,582.4c-2.4,1.9-3.3,4.8-4.9,7.2c-5.1,7.6-11.2,14.2-17.9,20.2c-3.7,3.3-8,5.9-12.9,7.4
		c-4.5,1.4-8.6,0.8-12.6-1.1c11.1,0.1,19.5-5.6,27-12.8c5-4.8,9.9-9.9,13.6-15.9c1.3-2.1,2.7-4.2,3.7-6.5c0.8-1.8,1.7-3.5,3.7-4.8
		C578.4,578.4,578.1,580.4,578,582.4z"/>
	<path class="st3" d="M313.2,558.8c-1.9,0-3.7,0.6-5.1,1.9c-4.1,3.6-9.1,5.7-13.9,8c-2.9,1.4-4.4,3.1-4.5,6.4
		c-0.2,5.4-1.7,10.6-2.8,15.8c-0.3,1.2-0.7,2.3-1.4,3.3c-0.2-0.8,0.1-1.7-1-2.3c-1,1.5-1.5,2.8,0.5,3.7c-0.8,3.2-1.9,6.3-3.8,9
		c-0.1-0.5-0.2-1.1-0.2-1.6c-0.1-1.6-0.9-1.8-2.1-1c1.6-4.4,3.8-8.6,4.8-13.2c1.2-5.3,3.2-10.4,2.9-16c-0.1-3,1.2-4.9,4-6.3
		c7.8-3.9,15.5-8,22.6-13.1c0.7-0.5,1.4-1.1,2.7-0.8C315.9,555,314.1,556.7,313.2,558.8z M281.3,599.2c0.7-0.1,1.6,0,1.7-1.1
		c0-0.3-0.2-0.7-0.5-0.7c-0.8,0.1-0.8,0.9-1.1,1.4C281.3,598.9,281.3,599,281.3,599.2c-0.3,0.1-0.3,0.2-0.1,0.2
		C281.2,599.4,281.3,599.2,281.3,599.2z"/>
	<path class="st3" d="M647.6,578.5c-2.3,1.1-3.4,3.1-4.5,5.3c-3,5.8-7.1,10.9-11.7,15.6c-3.4,3.4-6.9,6.6-11.1,9
		c-6.7,3.9-13.4,4.8-20.6,1.8c0-0.1,0.1-0.2,0.1-0.4c7,0.4,13.4-1.2,19.3-5.1c7.3-4.9,13.1-11.2,18.3-18.2c2.9-3.9,5.1-8.2,7.1-12.5
		c0.7-1.5,1.4-3.1,3.4-4.1C648.2,573,647.7,575.8,647.6,578.5z"/>
	<path class="st3" d="M368.7,613.6c-2.2,0.6-3.6,2-5,3.9c-5.5,7.9-12.1,14.6-21,18.6c-5.2,2.4-10.8,1.9-16.1-0.6
		c6.7,0.6,12.7-1.3,18.2-5.1c9.3-6.3,16.6-14.3,22.2-24.1c1-1.8,2.3-3.4,3.6-5.1c0.2-0.2,0.5-0.3,1.3-0.7
		C371.8,605.4,369.5,609.4,368.7,613.6z"/>
	<path class="st3" d="M776,560.1c-2,0.1-3.7,0.9-5.4,2c-8,4.9-16.5,8.7-25.1,12.4c-1.9,0.8-3.9,1.4-5.4,2.9c-0.3-0.3-0.7-0.5-1-0.8
		c-1.7-1.8-1.6-2.3,0.6-3.3c5.2-2.5,10.5-4.8,15.8-7.3c5.7-2.6,11.2-5.3,16.5-8.6c0.9-0.6,1.9-1.1,2.9-1.5c1.9-0.8,2.7-0.1,2.3,2
		C777,558.7,776.7,559.5,776,560.1z"/>
	<path class="st3" d="M746.3,581.2c1.9-0.1,3.5-1.2,5.2-2c5.3-2.4,10.5-4.9,15.7-7.3c0.9-0.4,1.7-0.9,2.8-0.7
		c-5.1,8.5-13.7,12.7-22.8,10.5C746.8,581.6,746.5,581.4,746.3,581.2z"/>
	<path class="st3" d="M391,510.6c-0.1-0.4-0.1-0.9-0.2-1.3c-0.8-2.6-0.2-3.5,2.4-3.4c6.2,0.3,12.4-0.2,18.5-1.4
		c1.3-0.3,2.7-0.3,4.1-0.5c0.6-0.1,1,0.4,1.1,1c-8,0.6-16,1.8-24.1,1.9c-1.2,0-1.8,0.6-1.7,1.8C391.2,509.3,391.3,510,391,510.6z"/>
	<path class="st2" d="M465.5,621.7c0,0.2,0.1,0.4,0.1,0.7c-1.7,0-2.6,0.8-2.2,2.6c-2.9-1-4-3.7-5.7-5.9
		C460.4,619.9,463,620.8,465.5,621.7z"/>
	<path class="st2" d="M599.7,609.9c0,0.1,0,0.2-0.1,0.4c-1.8,0-1.6,1.3-1.4,2.5c-1.5-1.4-3.1-2.8-3.9-4.8
		C596.1,608.6,597.9,609.2,599.7,609.9z"/>
	<path class="st11" d="M366.6,581.4c-1.1-0.7-1.8-1.5-0.7-2.8c0.6-0.7,1-1.6,1-2.6c1.3-0.1,1.5,0.8,1.6,1.8
		C368.2,579.2,367.5,580.4,366.6,581.4z"/>
	<path class="st2" d="M665.5,605.2c-0.7,0.9-0.6,2-1,2.9c-1.8-0.8-2.1-2.3-2-4.1C663.4,604.7,664.7,604.3,665.5,605.2z"/>
	<path class="st3" d="M385.4,508.6c1.1,1.6,0.9,2.5-0.6,3.9C385.1,511.2,385.5,510,385.4,508.6z"/>
	<path class="st8" d="M410.6,592.5c0-1,0.3-1.8,1-2.5c0.3,0,0.7,0,1,0.1C412,590.9,411.6,591.9,410.6,592.5z"/>
	<path class="st11" d="M786.4,495.3c1.4,1.1,1.6,2.6,1.7,4.2C786.8,498.4,786.3,497,786.4,495.3z"/>
	<path class="st11" d="M788.8,500.7c1.3,1,1.7,2.3,1.7,3.9C789.2,503.6,788.8,502.2,788.8,500.7z"/>
	<path class="st11" d="M795.4,515.3c0.9,0.8,1.3,1.7,1,2.9C795.2,517.5,795,516.5,795.4,515.3z"/>
	<path class="st11" d="M792.9,509.9c1,0.7,1.2,1.8,1,2.9C793,512,792.6,511.1,792.9,509.9z"/>
	<path class="st3" d="M418.4,505.7c0.9,0.8,0.9,1.6,0.3,2.5C418.6,507.4,418.5,506.5,418.4,505.7z"/>
	<path class="st3" d="M384.5,512.9c-0.1,1-0.8,1-1.6,1.1C383.3,513.4,384,513.1,384.5,512.9z"/>
	<path class="st11" d="M792.1,507.7c1,0.5,0.9,1.4,0.9,2.3C792,509.5,791.9,508.6,792.1,507.7z"/>
	<path class="st11" d="M796.3,518.2c1.1,0.5,1,1.4,0.8,2.3C796.4,519.9,796,519.2,796.3,518.2z"/>
	<path class="st3" d="M391,512l-0.3,0.1c0,0-0.3-0.1-0.3-0.1c0-0.5,0.1-1,0.5-1.3C391,511.1,391,511.5,391,512z"/>
	<path class="st3" d="M769.8,571.3c0-0.7,0.5-0.8,1-1C770.7,570.8,770.5,571.3,769.8,571.3z"/>
	<path class="st3" d="M417.5,505.1c0.3,0.2,0.5,0.3,0.8,0.5C418,505.4,417.8,505.3,417.5,505.1z"/>
	<path class="st3" d="M656.6,487.3c0,0.2,0,0.4-0.1,0.6C656.3,487.6,656.3,487.4,656.6,487.3z"/>
	<path class="st3" d="M389.1,511.9c-0.9,0.9-1.7,1.8-2.3,3c-0.1-1-0.2-1.9,0.2-2.8C387.6,510.7,388.3,511,389.1,511.9z"/>
	<path class="st3" d="M382.9,516.1c-0.6,0.1-1.1-0.1-1.3-0.6C382.2,515.4,382.7,515.5,382.9,516.1z"/>
	<path class="st3" d="M386.8,515c0.1,0.5,0,0.9-0.6,1C386.2,515.6,386.3,515.2,386.8,515z"/>
	<path class="st3" d="M658.2,490.5c0,0.4-0.2,0.6-0.6,0.7C657.8,490.9,658,490.7,658.2,490.5z"/>
	<path class="st2" d="M664.7,608.3c0.7-0.2,0.9,0.3,1,0.8C665.2,609.1,664.9,608.7,664.7,608.3z"/>
	<path class="st4" d="M382.7,520.7c-0.6,0.7-1.4,0.6-2.2,0.7C381,520.6,381.8,520.6,382.7,520.7z"/>
	<path class="st2" d="M751.8,520.2c-0.1-1.3,0-2.5,1.5-3C753.1,518.4,752.8,519.5,751.8,520.2z"/>
	<path class="st2" d="M750.7,522.3c0-0.4,0.1-0.7,0.5-0.9C751.2,521.8,751,522.1,750.7,522.3z"/>
	<path class="st2" d="M755,514.3c0-0.2,0.1-0.4,0.3-0.5C755.5,514.1,755.3,514.2,755,514.3z"/>
	<path class="st2" d="M755.7,513.1c0-0.3,0.1-0.6,0.4-0.7C756.1,512.7,756,513,755.7,513.1z"/>
	<path class="st8" d="M752.9,503.4c0-1.3,0.6-2.2,1.8-2.6C754.5,502,753.9,502.8,752.9,503.4z"/>
	<path class="st8" d="M741.5,524.2c-0.1-0.9-0.1-1.8,1.1-2C742.6,523,742.2,523.7,741.5,524.2z"/>
	<path class="st8" d="M750.1,507.8c-0.2-0.9,0.1-1.4,1-1.5C751.1,507,750.8,507.5,750.1,507.8z"/>
	<path class="st8" d="M746.7,514.2c-0.1-0.8,0.2-1.3,0.9-1.7C747.7,513.3,747.4,513.8,746.7,514.2z"/>
	<path class="st8" d="M751.8,505c-0.2-0.8,0.1-1.3,1-1.5C752.7,504.1,752.4,504.6,751.8,505z"/>
	<path class="st8" d="M744.5,518.3c-0.1-0.8,0.3-1.3,1-1.7C745.5,517.5,745.1,518,744.5,518.3z"/>
	<path class="st8" d="M751.1,506.2c-0.1-0.6,0.1-1,0.7-1.2C751.8,505.5,751.7,506,751.1,506.2z"/>
	<path class="st8" d="M742.6,522.1c-0.1-0.5,0.1-1,0.6-1.2C743.3,521.4,743.1,521.8,742.6,522.1z"/>
	<path class="st8" d="M743.2,520.8c-0.1-0.6,0-1,0.6-1.3C743.8,520,743.7,520.5,743.2,520.8z"/>
	<path class="st8" d="M745.5,516.6c-0.1-0.6,0-1,0.6-1.2C746.1,515.9,745.9,516.3,745.5,516.6z"/>
	<path class="st8" d="M749.5,509.1c-0.1-0.6,0-1.1,0.6-1.3C750.1,508.3,749.9,508.8,749.5,509.1z"/>
	<path class="st8" d="M740.9,525.5c0.1-0.2,0.2-0.4,0.3-0.6C741.3,525.2,741.2,525.4,740.9,525.5z"/>
	<path class="st8" d="M743.8,519.5c0-0.4,0.1-0.6,0.5-0.8C744.3,519.1,744.1,519.3,743.8,519.5z"/>
	<path class="st8" d="M747.8,512c-0.1-0.4,0.1-0.7,0.5-0.9C748.3,511.5,748.2,511.8,747.8,512z"/>
	<path class="st8" d="M754.7,500.8c0-0.4,0.2-0.6,0.6-0.7C755.2,500.4,755.1,500.7,754.7,500.8z"/>
	<path class="st8" d="M746.1,515.4c0-0.4,0.1-0.6,0.5-0.8C746.6,515,746.5,515.2,746.1,515.4z"/>
	<path class="st9" d="M393.1,648c-0.2-0.1-0.4-0.1-0.5-0.2c-0.1-0.1,0.1-0.3,0.2-0.5c0.2,0.1,0.4,0.1,0.5,0.2
		C393.3,647.6,393.1,647.8,393.1,648z"/>
	<path class="st6" d="M383.9,517.5c-3.3-0.5-6.3,0.6-8.9,2.4c-5.4,3.7-10.2,8.2-14.6,13c-6.4,7-11.1,15.1-15.3,23.5
		c-2.7,5.3-4.4,10.9-5.6,16.7c-0.7,3.6-1.8,7.2-2.2,10.9c-0.6,5.6-0.7,11.1,0.5,16.6c0.2,0.9,0.1,1.9,0.2,2.9
		c-3.5-3.8-4.2-8.6-4.4-13.4c-0.3-8.1,1.2-16.1,3.7-23.8c2.3-7.1,4.9-14,8.9-20.4c6.4-10.2,13.7-19.8,23.5-27.1
		c1.2-0.9,2.6-1.7,3.9-2.4c2.5-1.4,5-2.1,7.7-0.5c1.2,0.7,2.5,0.5,3.8,0.2C384.7,516.7,384.3,517.1,383.9,517.5z"/>
	<path class="st6" d="M368,617.6c-1.6,0.7-2.7,2-3.8,3.5c-5.5,7.9-12.1,14.6-21,18.6c-5.2,2.4-10.8,1.9-16.1-0.6
		c6.7,0.6,12.7-1.3,18.2-5.1c9.3-6.3,16.6-14.3,22.2-24.1c1-1.8,2.3-3.4,3.6-5.1"/>
	<path class="st6" d="M441.4,584c-2.2,1.1-3.5,2.8-4.7,5.1c-2,3.8-4.7,7.3-7.2,10.9c-9.7,13.7-19.5,27.3-28.1,41.8
		c-3.4,5.8-6.8,11.7-9.6,17.8c-0.4,0.8-0.7,1.6-1.5,2.1c-0.9-1-2.1-0.5-3.2-0.4c1.9-5.1,4.5-9.9,7.1-14.7
		c5.5-10,11.5-19.7,18.2-28.9c5.9-8.1,11.4-16.6,17.2-24.8c3.4-4.9,7-9.8,9.6-15.3c0.8-1.8,2-3.3,3.8-4.9
		C443.2,576.9,441.7,580.4,441.4,584z"/>
	<path class="st6" d="M379.7,700.7c0.2-0.9,0.4-1.8,0.6-2.8c2.1-9.8,3.6-19.8,5.5-29.7c0.4-2.3,0.9-4.7,1.3-7.1l3.9-1.1
		c-0.1,0.6-0.2,1.2-0.2,1.8c-0.2,4.3-1.3,8.6-2.1,12.9c-1.8,9.1-3.6,18.3-5.2,27.4L379.7,700.7z"/>
	<path class="st6" d="M379.7,700.7l0.8,3.7c0,0,1.9,4.4-1,4.3c-2.9-0.1-29.2,1.3-29.2,1.3s-2.6,3.4,0.1,3.9
		c2.7,0.5,31.9,0.6,33.8-0.9c1.9-1.5-0.2-6.1-0.2-6.1l-0.7-4.5L379.7,700.7z"/>
	<path class="st6" d="M834.6,527.9c-0.9,0.6-1.7,1.3-2.6,2.2c-3,3-6.5,5.4-10.1,7.7c-4.1,2.6-8.1,5.1-12.2,7.7c-1.9,1.2-2.3,2.8-2,5
		c1.4,10.8-0.7,20.9-7,29.9c-9,13-21.4,20.3-37.1,22.1c-5.1,0.6-10.3,0.4-15-2.3c16.9,1.6,31.4-3.9,43.5-15.5
		c7.1-6.8,11-15.4,12.6-25c0.7-4.2,1.2-8.4,0.6-12.7c-0.3-2.4,0.5-3.9,2.6-5.1c6.7-3.6,12.9-8.1,19-12.7c3-2.2,5.9-4.5,8.6-7.1"/>
	<path class="st6" d="M906.7,484.6c-7.1,2.2-11.9,7.3-16.4,12.9c-5.5,6.9-8.9,15-12.4,23c-2.4,5.4-4.8,10.8-7,16.3
		c-1.9,4.8-3.6,9.6-5.2,14.5c-2.5,7.6-5.1,15.1-7.3,22.8c-1.2,4.2-2.9,8.3-2.4,12.8c0.2,1.7-0.6,2.4-2.2,2.6
		c-7.4,0.9-14.7,1.9-22.1,2.4c-2,0.1-3.2-1.1-4.2-2.6c2.3-1,4.7-0.8,7.1-1.1c4.7-0.5,9.4-0.7,14-1c0.9-0.1,1.8-0.1,2.6-0.3
		c1.5-0.3,2.3-1,1.9-2.8c-0.6-2.4,0-4.8,0.7-7.1c3.8-12.6,7.6-25.3,12.3-37.6c4-10.6,8.5-21,13.5-31.2c3.4-6.8,7.1-13.3,12.5-18.6
		c2.8-2.8,5.8-5.3,9.5-6.8c2.5-1,4.9-1,7,1C908,484,907.4,484.3,906.7,484.6z"/>
	<path class="st10" d="M906.7,482c0,0,2.4,4.4,1.9,5.6c0.5,1.1,2.4-4.1,2.4-4.1L906.7,482z"/>
</g>
</svg>
